<svg width="20" height="20" viewBox="0 0 20 20" fill="none" xmlns="http://www.w3.org/2000/svg">
<path d="M2.75889 16.5219C2.94933 16.5219 3.10372 16.3273 3.10372 16.0871C3.10372 15.847 2.94933 15.6523 2.75889 15.6523C2.56845 15.6523 2.41406 15.847 2.41406 16.0871C2.41406 16.3273 2.56845 16.5219 2.75889 16.5219Z" fill="#FF8185"/>
<path fill-rule="evenodd" clip-rule="evenodd" d="M10.896 10.6523H2.06944C1.87909 10.6523 1.72461 10.8471 1.72461 11.0871C1.72461 11.3271 1.87909 11.5219 2.06944 11.5219H10.896C11.0863 11.5219 11.2408 11.3271 11.2408 11.0871C11.2408 10.8471 11.0863 10.6523 10.896 10.6523Z" fill="#FF8185"/>
<path fill-rule="evenodd" clip-rule="evenodd" d="M10.3453 8.47852H2.06944C1.87909 8.47852 1.72461 8.6733 1.72461 8.9133C1.72461 9.1533 1.87909 9.34808 2.06944 9.34808H10.3453C10.5356 9.34808 10.6901 9.1533 10.6901 8.9133C10.6901 8.6733 10.5356 8.47852 10.3453 8.47852Z" fill="#FF8185"/>
<path fill-rule="evenodd" clip-rule="evenodd" d="M17.9314 5.86963H8.96592C8.77558 5.86963 8.62109 6.06441 8.62109 6.30441C8.62109 6.54441 8.77558 6.73919 8.96592 6.73919H17.9314C18.1218 6.73919 18.2763 6.54441 18.2763 6.30441C18.2763 6.06441 18.1218 5.86963 17.9314 5.86963Z" fill="#FF8185"/>
<path fill-rule="evenodd" clip-rule="evenodd" d="M17.9311 3.91309H10.0001C9.80976 3.91309 9.65527 4.10787 9.65527 4.34787C9.65527 4.58787 9.80976 4.78265 10.0001 4.78265H17.9311C18.1215 4.78265 18.276 4.58787 18.276 4.34787C18.276 4.10787 18.1215 3.91309 17.9311 3.91309Z" fill="#FF8185"/>
<path fill-rule="evenodd" clip-rule="evenodd" d="M17.9314 1.95654H8.96592C8.77558 1.95654 8.62109 2.15133 8.62109 2.39133C8.62109 2.63133 8.77558 2.82611 8.96592 2.82611H17.9314C18.1218 2.82611 18.2763 2.63133 18.2763 2.39133C18.2763 2.15133 18.1218 1.95654 17.9314 1.95654Z" fill="#FF8185"/>
<path fill-rule="evenodd" clip-rule="evenodd" d="M6.09893 2.69511L7.14341 4.04468C7.2741 4.21337 7.2741 4.48294 7.14341 4.65163L6.09893 6.0012C5.96617 6.17294 5.96859 6.44815 6.10479 6.61598C6.241 6.78337 6.45962 6.77989 6.59238 6.60815C6.59238 6.60815 7.19203 5.83381 7.63686 5.25902C8.02893 4.7525 8.02893 3.94381 7.63686 3.43728C7.19203 2.8625 6.59238 2.08815 6.59238 2.08815C6.45962 1.91641 6.241 1.91294 6.10479 2.08033C5.96859 2.24815 5.96617 2.52337 6.09893 2.69511Z" fill="#FF8185"/>
<path fill-rule="evenodd" clip-rule="evenodd" d="M16.4437 8.34697L17.4881 9.69653C17.6188 9.86523 17.6188 10.1348 17.4881 10.3035L16.4437 11.6531C16.3109 11.8248 16.3133 12.1 16.4495 12.2678C16.5857 12.4352 16.8043 12.4317 16.9371 12.26C16.9371 12.26 17.5368 11.4857 17.9816 10.9109C18.3737 10.4044 18.3737 9.59566 17.9816 9.08914C17.5368 8.51436 16.9371 7.74001 16.9371 7.74001C16.8043 7.56827 16.5857 7.56479 16.4495 7.73218C16.3133 7.90001 16.3109 8.17523 16.4437 8.34697Z" fill="#FF8185"/>
<path fill-rule="evenodd" clip-rule="evenodd" d="M3.06314 2.08815C3.06314 2.08815 2.46349 2.8625 2.01866 3.43728C1.62659 3.94381 1.62659 4.7525 2.01866 5.25902C2.46349 5.83381 3.06314 6.60815 3.06314 6.60815C3.1959 6.77989 3.41452 6.78337 3.55073 6.61598C3.68694 6.44815 3.68935 6.17294 3.55659 6.0012L2.51211 4.65163C2.38142 4.48294 2.38142 4.21337 2.51211 4.04468L3.55659 2.69511C3.68935 2.52337 3.68694 2.24815 3.55073 2.08033C3.41452 1.91294 3.1959 1.91641 3.06314 2.08815Z" fill="#FF8185"/>
<path fill-rule="evenodd" clip-rule="evenodd" d="M13.4079 7.74001C13.4079 7.74001 12.8082 8.51436 12.3634 9.08914C11.9713 9.59566 11.9713 10.4044 12.3634 10.9109C12.8082 11.4857 13.4079 12.26 13.4079 12.26C13.5406 12.4317 13.7592 12.4352 13.8955 12.2678C14.0317 12.1 14.0341 11.8248 13.9013 11.6531L12.8568 10.3035C12.7261 10.1348 12.7261 9.86523 12.8568 9.69653L13.9013 8.34697C14.0341 8.17523 14.0317 7.90001 13.8955 7.73218C13.7592 7.56479 13.5406 7.56827 13.4079 7.74001Z" fill="#FF8185"/>
<path fill-rule="evenodd" clip-rule="evenodd" d="M4.835 2.60586L4.15018 5.86673C4.10155 6.0989 4.21155 6.33673 4.39535 6.39847C4.57949 6.45977 4.76811 6.32108 4.81707 6.08934L5.50155 2.82847C5.55018 2.5963 5.44052 2.35847 5.25638 2.29673C5.07259 2.23543 4.88362 2.37412 4.835 2.60586Z" fill="#FF8185"/>
<path fill-rule="evenodd" clip-rule="evenodd" d="M15.0002 9.10757V8.67279H15.345V9.57974L14.9288 10.1045C14.864 10.1863 14.8278 10.2967 14.8278 10.4119V10.8467C14.8278 11.0867 14.9823 11.2815 15.1726 11.2815C15.363 11.2815 15.5174 11.0867 15.5174 10.8467V10.5924L15.9337 10.0676C15.9985 9.98583 16.0347 9.8754 16.0347 9.75974V8.23801C16.0347 7.99801 15.8802 7.80322 15.6899 7.80322H14.6554C14.465 7.80322 14.3105 7.99801 14.3105 8.23801V9.10757C14.3105 9.34757 14.465 9.54235 14.6554 9.54235C14.8457 9.54235 15.0002 9.34757 15.0002 9.10757Z" fill="#FF8185"/>
<path fill-rule="evenodd" clip-rule="evenodd" d="M0.689655 14.3478H19.3103V15.2174C19.3103 15.4574 19.1559 15.6522 18.9655 15.6522H3.7931C3.60276 15.6522 3.44828 15.847 3.44828 16.087C3.44828 16.327 3.60276 16.5217 3.7931 16.5217H7.55759C7.49414 17.1987 7.29276 18.4848 6.65793 19.2513C6.55621 19.3739 6.52414 19.5626 6.57655 19.7274C6.62897 19.8922 6.75586 20 6.89655 20H13.1034C13.2441 20 13.371 19.8922 13.4234 19.7274C13.4759 19.5626 13.4438 19.3739 13.3421 19.2513C12.7072 18.4848 12.5059 17.1987 12.4424 16.5217H18.9655C19.5369 16.5217 20 15.9378 20 15.2174V1.30435C20 0.583913 19.5369 0 18.9655 0H18.2759C18.0855 0 17.931 0.194783 17.931 0.434783C17.931 0.674783 18.0855 0.869565 18.2759 0.869565H18.9655C19.1559 0.869565 19.3103 1.06435 19.3103 1.30435V13.4783H0.689655V1.30435C0.689655 1.06435 0.844138 0.869565 1.03448 0.869565H17.2414C17.4317 0.869565 17.5862 0.674783 17.5862 0.434783C17.5862 0.194783 17.4317 0 17.2414 0C17.2414 0 3.68931 0 1.03448 0C0.463103 0 0 0.583913 0 1.30435V15.2174C0 15.9378 0.463103 16.5217 1.03448 16.5217H1.72414C1.91448 16.5217 2.06897 16.327 2.06897 16.087C2.06897 15.847 1.91448 15.6522 1.72414 15.6522H1.03448C0.844138 15.6522 0.689655 15.4574 0.689655 15.2174V14.3478ZM11.7541 16.5217H8.24586C8.19 17.1122 8.03241 18.2161 7.6 19.1304H12.4C11.9676 18.2161 11.81 17.1122 11.7541 16.5217Z" fill="#FF8185"/>
<path d="M15.173 12.391C15.3634 12.391 15.5178 12.1964 15.5178 11.9563C15.5178 11.7161 15.3634 11.5215 15.173 11.5215C14.9825 11.5215 14.8281 11.7161 14.8281 11.9563C14.8281 12.1964 14.9825 12.391 15.173 12.391Z" fill="#FF8185"/>
</svg>
