<svg width="10" height="17" viewBox="0 0 10 17" fill="none" xmlns="http://www.w3.org/2000/svg">
<path fill-rule="evenodd" clip-rule="evenodd" d="M0.71934 9.03015C0.578889 8.88953 0.5 8.6989 0.5 8.50015C0.5 8.3014 0.578889 8.11078 0.71934 7.97015L8.21934 0.470154C8.288 0.396467 8.3708 0.337365 8.4628 0.296373C8.5548 0.255381 8.65411 0.233339 8.75482 0.231562C8.85552 0.229785 8.95555 0.24831 9.04894 0.286031C9.14233 0.323752 9.22716 0.379897 9.29838 0.451115C9.3696 0.522334 9.42574 0.607168 9.46346 0.700556C9.50118 0.793944 9.51971 0.893973 9.51793 0.994676C9.51615 1.09538 9.49411 1.19469 9.45312 1.28669C9.41213 1.37869 9.35303 1.46149 9.27934 1.53015L2.30934 8.50015L9.27934 15.4702C9.35303 15.5388 9.41213 15.6216 9.45312 15.7136C9.49411 15.8056 9.51615 15.9049 9.51793 16.0056C9.51971 16.1063 9.50118 16.2064 9.46346 16.2998C9.42574 16.3931 9.3696 16.478 9.29838 16.5492C9.22716 16.6204 9.14233 16.6766 9.04894 16.7143C8.95555 16.752 8.85552 16.7705 8.75482 16.7687C8.65411 16.767 8.5548 16.7449 8.4628 16.7039C8.3708 16.6629 8.288 16.6038 8.21934 16.5302L0.71934 9.03015Z" fill="black"/>
</svg>
