<svg width="20" height="20" viewBox="0 0 20 20" fill="none" xmlns="http://www.w3.org/2000/svg">
<g clip-path="url(#clip0_477_1122)">
<path d="M10.834 17.5H17.5007" stroke="#4A4A4A" stroke-width="2" stroke-linecap="round" stroke-linejoin="round"/>
<path d="M17.6443 5.67682C18.0849 5.23634 18.3325 4.63888 18.3325 4.01587C18.3326 3.39285 18.0852 2.79533 17.6447 2.35474C17.2042 1.91415 16.6068 1.66658 15.9838 1.6665C15.3607 1.66643 14.7632 1.91384 14.3226 2.35432L3.20096 13.4785C3.00748 13.6714 2.86439 13.9089 2.78429 14.1702L1.68346 17.7968C1.66192 17.8689 1.6603 17.9454 1.67875 18.0184C1.69721 18.0913 1.73506 18.1578 1.78829 18.211C1.84152 18.2641 1.90814 18.3019 1.98109 18.3202C2.05404 18.3386 2.13059 18.3368 2.20263 18.3152L5.83013 17.2152C6.0911 17.1358 6.32861 16.9936 6.52179 16.801L17.6443 5.67682Z" stroke="#4A4A4A" stroke-width="2" stroke-linecap="round" stroke-linejoin="round"/>
</g>
<defs>
<clipPath id="clip0_477_1122">
<rect width="20" height="20" fill="white"/>
</clipPath>
</defs>
</svg>
