<svg width="88" height="88" viewBox="0 0 88 88" fill="none" xmlns="http://www.w3.org/2000/svg">
<path d="M80.6673 47.6665V21.9998C80.6673 20.0549 79.8947 18.1897 78.5194 16.8144C77.1442 15.4391 75.2789 14.6665 73.334 14.6665H14.6673C12.7224 14.6665 10.8571 15.4391 9.48187 16.8144C8.1066 18.1897 7.33398 20.0549 7.33398 21.9998V65.9998C7.33398 70.0332 10.634 73.3332 14.6673 73.3332H44.0007" stroke="#00BFA5" stroke-width="5" stroke-linecap="round" stroke-linejoin="round"/>
<path d="M80.6673 25.6665L47.7773 46.5665C46.6453 47.2757 45.3365 47.6519 44.0007 47.6519C42.6648 47.6519 41.356 47.2757 40.224 46.5665L7.33398 25.6665" stroke="#00BFA5" stroke-width="5" stroke-linecap="round" stroke-linejoin="round"/>
<path d="M58.666 69.6668L65.9993 77.0002L80.666 62.3335" stroke="#00BFA5" stroke-width="5" stroke-linecap="round" stroke-linejoin="round"/>
</svg>
