<svg width="14" height="14" viewBox="0 0 14 14" fill="none" xmlns="http://www.w3.org/2000/svg">
<g clip-path="url(#clip0_561_2069)">
<path d="M10.5 0.875C12.1917 0.875 13.5625 2.24583 13.5625 3.9375V6.125C13.5625 6.24103 13.5164 6.35231 13.4344 6.43436C13.3523 6.51641 13.241 6.5625 13.125 6.5625C13.009 6.5625 12.8977 6.51641 12.8156 6.43436C12.7336 6.35231 12.6875 6.24103 12.6875 6.125V3.9375C12.6875 3.35734 12.457 2.80094 12.0468 2.3907C11.6366 1.98047 11.0802 1.75 10.5 1.75C9.91984 1.75 9.36344 1.98047 8.9532 2.3907C8.54297 2.80094 8.3125 3.35734 8.3125 3.9375V5.6875C8.77663 5.6875 9.22175 5.87187 9.54994 6.20006C9.87813 6.52825 10.0625 6.97337 10.0625 7.4375V11.375C10.0625 11.8391 9.87813 12.2842 9.54994 12.6124C9.22175 12.9406 8.77663 13.125 8.3125 13.125H2.1875C1.72337 13.125 1.27825 12.9406 0.950063 12.6124C0.621874 12.2842 0.4375 11.8391 0.4375 11.375V7.4375C0.4375 6.97337 0.621874 6.52825 0.950063 6.20006C1.27825 5.87187 1.72337 5.6875 2.1875 5.6875H7.4375V3.9375C7.4375 2.24583 8.80833 0.875 10.5 0.875Z" fill="#00BFA5"/>
</g>
<defs>
<clipPath id="clip0_561_2069">
<rect width="14" height="14" fill="white"/>
</clipPath>
</defs>
</svg>
