<svg width="24" height="25" viewBox="0 0 24 25" fill="none" xmlns="http://www.w3.org/2000/svg">
<path d="M23.9572 2.3762C23.8532 1.75289 23.571 1.2209 23.1633 0.877754C22.8704 0.630641 22.5332 0.5 22.1865 0.5C21.5636 0.5 20.9921 0.912367 20.6561 1.60179L19.121 4.75917C19.0445 4.69149 18.9584 4.6427 18.8604 4.6427H12.4198C12.3241 4.6427 12.2297 4.68048 12.1496 4.75288L10.459 6.27333L8.77086 4.75445C8.69195 4.68205 8.5975 4.64427 8.50066 4.64427H2.05881C1.79458 4.64427 1.58057 4.92601 1.58057 5.27386V6.21827L0.478234 6.21669C0.21401 6.21669 0 6.49844 0 6.84629V23.8704C0 24.2183 0.21401 24.5 0.478234 24.5H20.4444C20.7086 24.5 20.9226 24.2183 20.9226 23.8704V9.91869L23.2851 5.05845L23.2863 5.05688V5.0553L23.7131 4.17702C23.975 3.63873 24.0612 2.9995 23.9572 2.3762ZM22.648 1.93708C22.8405 2.0992 22.9744 2.35102 23.0234 2.64536C23.0725 2.93971 23.0318 3.24191 22.9075 3.49689L22.7377 3.84631L21.2922 2.62964L21.462 2.28022C21.7095 1.7734 22.2583 1.60967 22.648 1.93708ZM17.8335 13.937L17.5143 13.6678L21.9034 4.63798L22.2226 4.90713L17.8335 13.937ZM20.7771 3.69026L21.0975 3.95941L16.7192 12.9671C16.651 12.8191 16.541 12.7168 16.4071 12.6822L20.7771 3.69026ZM15.966 15.6857L15.8058 13.9197V13.9181H16.0353L16.5936 14.3888L16.5948 14.3904C16.596 14.3904 16.596 14.3904 16.5972 14.3919L17.3182 14.9995L17.2512 15.1364L15.966 15.6857ZM12.568 5.90199H18.3833V6.27974L16.6724 9.80073H12.2978C12.0336 9.80073 11.8195 10.0825 11.8195 10.4303C11.8195 10.7782 12.0336 11.0599 12.2978 11.0599H16.0603L15.2832 12.6591H12.2978C12.0336 12.6591 11.8195 12.9408 11.8195 13.2887C11.8195 13.6365 12.0336 13.9183 12.2978 13.9183H14.8432L15.0213 15.892H12.2978C12.0336 15.892 11.8196 16.1738 11.8196 16.5216C11.8196 16.8695 12.0336 17.1512 12.2978 17.1512H15.5605C15.6095 17.1512 15.6597 17.1402 15.7076 17.1197L17.709 16.2635C17.8142 16.2178 17.905 16.1265 17.9648 16.0038L18.3821 15.146L18.3833 15.1428V21.1127H12.2187C12.1362 21.1127 12.0549 21.1411 11.982 21.1946L10.9383 21.9737L10.9395 7.36721L12.568 5.90199ZM8.3534 5.90356L9.98059 7.36735V21.9771L8.94044 21.198C8.86871 21.1444 8.78741 21.1161 8.70372 21.1161L2.53702 21.1145V6.8606C2.53702 6.85588 2.53942 6.85116 2.53942 6.84486C2.53942 6.84014 2.53702 6.83542 2.53702 6.82912V5.90047L8.3534 5.90356ZM0.956308 7.47594H1.58042V21.744C1.58042 22.0918 1.79443 22.3736 2.05865 22.3736H8.57702L9.73433 23.2408H0.956247L0.956308 7.47594ZM19.966 23.2409H11.1821L12.3442 22.3721H18.8601C19.1244 22.3721 19.3384 22.0903 19.3384 21.7425L19.3396 13.1752L19.9661 11.8861L19.966 23.2409Z" fill="#00BFA5"/>
<path d="M4.09933 11.06H8.11772C8.38194 11.06 8.59595 10.7782 8.59595 10.4304C8.59595 10.0825 8.38194 9.80078 8.11772 9.80078H4.09933C3.8351 9.80078 3.62109 10.0825 3.62109 10.4304C3.62109 10.7782 3.8351 11.06 4.09933 11.06Z" fill="#00BFA5"/>
<path d="M4.09933 13.9179H8.11772C8.38194 13.9179 8.59595 13.6361 8.59595 13.2883C8.59595 12.9404 8.38194 12.6587 8.11772 12.6587H4.09933C3.8351 12.6587 3.62109 12.9404 3.62109 13.2883C3.62109 13.6361 3.8351 13.9179 4.09933 13.9179Z" fill="#00BFA5"/>
<path d="M4.09933 17.1508H8.11772C8.38194 17.1508 8.59595 16.869 8.59595 16.5212C8.59595 16.1733 8.38194 15.8916 8.11772 15.8916H4.09933C3.8351 15.8916 3.62109 16.1733 3.62109 16.5212C3.62109 16.869 3.8351 17.1508 4.09933 17.1508Z" fill="#00BFA5"/>
</svg>
