<svg width="10" height="14" viewBox="0 0 10 14" fill="none" xmlns="http://www.w3.org/2000/svg">
<path fill-rule="evenodd" clip-rule="evenodd" d="M5 0.875C4.18777 0.875 3.40882 1.19766 2.83449 1.77199C2.26016 2.34632 1.9375 3.12527 1.9375 3.9375V5.6875C1.47337 5.6875 1.02825 5.87187 0.700063 6.20006C0.371875 6.52825 0.1875 6.97337 0.1875 7.4375V11.375C0.1875 11.8391 0.371875 12.2842 0.700063 12.6124C1.02825 12.9406 1.47337 13.125 1.9375 13.125H8.0625C8.52663 13.125 8.97175 12.9406 9.29994 12.6124C9.62813 12.2842 9.8125 11.8391 9.8125 11.375V7.4375C9.8125 6.97337 9.62813 6.52825 9.29994 6.20006C8.97175 5.87187 8.52663 5.6875 8.0625 5.6875V3.9375C8.0625 2.24583 6.69167 0.875 5 0.875ZM7.1875 5.6875V3.9375C7.1875 3.35734 6.95703 2.80094 6.5468 2.3907C6.13656 1.98047 5.58016 1.75 5 1.75C4.41984 1.75 3.86344 1.98047 3.4532 2.3907C3.04297 2.80094 2.8125 3.35734 2.8125 3.9375V5.6875H7.1875Z" fill="#9E9E9E"/>
</svg>
