<svg width="16" height="16" viewBox="0 0 16 16" fill="none" xmlns="http://www.w3.org/2000/svg">
<path d="M10.3248 5.8464L10.0313 12.3078M5.96873 12.3078L5.67515 5.8464M14.1328 3.54184C14.423 3.57918 14.7115 3.61866 15 3.66102M14.1328 3.54184L13.2267 13.5089C13.1897 13.9147 12.973 14.2937 12.62 14.5701C12.267 14.8466 11.8037 15.0001 11.3227 15H4.67733C4.19632 15.0001 3.73299 14.8466 3.37998 14.5701C3.02698 14.2937 2.81032 13.9147 2.77333 13.5089L1.86715 3.54184M14.1328 3.54184C13.1536 3.41658 12.1693 3.32151 11.1818 3.25683M1.86715 3.54184C1.57697 3.57846 1.28848 3.61795 1 3.6603M1.86715 3.54184C2.84642 3.41658 3.83074 3.32151 4.81818 3.25683M11.1818 3.25683V2.5992C11.1818 1.75205 10.4097 1.0456 9.40848 1.01904C8.46973 0.993653 7.53027 0.993653 6.59152 1.01904C5.5903 1.0456 4.81818 1.75276 4.81818 2.5992V3.25683M11.1818 3.25683C9.06376 3.11832 6.93624 3.11832 4.81818 3.25683" stroke="#4A4A4A" stroke-width="1.5" stroke-linecap="round" stroke-linejoin="round"/>
</svg>
