<svg width="21" height="20" viewBox="0 0 21 20" fill="none" xmlns="http://www.w3.org/2000/svg">
<path fill-rule="evenodd" clip-rule="evenodd" d="M16.363 11.5321C16.3751 11.5212 16.3883 11.5127 16.4023 11.5043C16.5364 11.4089 16.6667 11.3002 16.7924 11.1759C16.8861 11.0721 17.0277 11.0733 17.1214 11.1831L17.5199 11.6492C17.6709 11.4318 17.8246 11.2085 17.9793 10.996L17.5828 10.5312C17.4899 10.4225 17.4759 10.2427 17.5453 10.1123C18.2072 8.74921 18.1715 6.99376 17.4562 5.67559C16.4699 3.85741 14.5179 3.41313 13.1069 4.68321C11.6949 5.95329 11.3499 8.46681 12.3362 10.2838C13.255 11.9789 14.998 12.4689 16.363 11.5321ZM13.8502 9.4193C13.7133 9.4193 13.6018 9.27684 13.6018 9.10059C13.6018 8.92432 13.7124 8.78064 13.8502 8.78064H15.941C16.0779 8.78064 16.1894 8.9231 16.1894 9.10059C16.1894 9.27685 16.0788 9.42053 15.941 9.42053L13.8502 9.4193ZM13.8502 8.30254C13.7124 8.30254 13.6008 8.15888 13.6008 7.98139C13.6008 7.80391 13.7124 7.66024 13.8502 7.66024H15.941C16.0788 7.66024 16.1904 7.80391 16.1904 7.98139C16.1904 8.15888 16.0788 8.30254 15.941 8.30254H13.8502ZM13.8502 7.18338C13.7133 7.18338 13.6018 7.04092 13.6018 6.86467C13.6018 6.6884 13.7124 6.54472 13.8502 6.54472H15.941C16.0779 6.54472 16.1894 6.68718 16.1894 6.86467C16.1894 7.04093 16.0788 7.18462 15.941 7.18462L13.8502 7.18338ZM16.9356 11.8314C16.8747 11.8858 16.8119 11.9365 16.7491 11.9848V13.6883C16.7491 14.5539 16.2006 15.2601 15.5284 15.2601H10.5761L11.313 16.9033H13.6091C14.271 16.9033 14.8111 17.5999 14.8111 18.451V19.6788C14.8111 19.8563 14.6995 20 14.5617 20H2.68738C2.54956 20 2.43798 19.8563 2.43798 19.6788V18.451C2.43798 17.5987 2.97802 16.9033 3.63993 16.9033H5.93602L6.67294 15.2601H1.7207C1.04846 15.2601 0.5 14.5539 0.5 13.6883V1.57189C0.5 0.70625 1.04848 0 1.7207 0H15.5281C16.2003 0 16.7488 0.706281 16.7488 1.57189V3.97804C17.1763 4.30522 17.5579 4.75312 17.8617 5.3121C18.653 6.77052 18.7298 8.68402 18.0651 10.2343L18.3492 10.5675C18.5301 10.4601 18.7448 10.4963 18.8977 10.6774C19.3796 11.2496 19.8587 11.8279 20.3396 12.4026C20.5422 12.6453 20.5543 13.0557 20.3678 13.3177C20.0893 13.7077 19.7987 14.1471 19.5118 14.5165C19.313 14.7822 18.9952 14.7882 18.803 14.5491L17.3629 12.8263C17.2194 12.6537 17.1716 12.3966 17.2232 12.1672L16.9356 11.8314ZM17.7016 12.359C17.6997 12.3578 17.6997 12.3542 17.6988 12.3518L18.5585 11.1457L20.0043 12.877L19.1445 14.083L17.7016 12.359ZM16.2512 3.66156C15.1543 3.09293 13.8623 3.22571 12.8216 4.16259C11.1846 5.63548 10.7843 8.54392 11.9291 10.653C12.9201 12.4797 14.7305 13.0978 16.2513 12.3058V13.6906C16.2513 14.2012 15.9259 14.6214 15.5284 14.6214L1.72102 14.619C1.32444 14.619 0.998162 14.2 0.998162 13.6882V1.57179C0.998162 1.06112 1.3235 0.640974 1.72102 0.640974H15.5284C15.925 0.640974 16.2513 1.05991 16.2513 1.57179L16.2512 3.66156ZM12.8075 7.5045C13.0118 6.01711 14.1107 5.02955 15.2657 5.29275C16.4208 5.55594 17.1877 6.9721 16.9833 8.45822C16.7789 9.94561 15.6801 10.9332 14.5251 10.67C13.37 10.4068 12.6031 8.99183 12.8075 7.5045ZM12.7503 9.91306C11.9215 8.38704 12.2112 6.28646 13.3962 5.22018C14.5813 4.15415 16.2126 4.52599 17.0406 6.05201C17.8694 7.57803 17.5797 9.6786 16.3947 10.7449C15.2096 11.8109 13.5783 11.4379 12.7503 9.91306ZM9.14715 1.81333C8.52556 1.81333 8.15147 2.66447 8.42243 3.34056L7.58518 4.41868C7.28703 4.22068 6.91575 4.28346 6.66544 4.57683L6.16854 4.20741C6.26886 3.60136 5.92571 2.93732 5.37255 2.93732C4.85407 2.93732 4.47062 3.55064 4.57656 4.2062L3.37367 5.09959C2.86926 4.49957 2.01327 4.9523 2.01327 5.87588C2.01327 6.80549 2.88987 7.27512 3.4018 6.61594C3.61651 6.33947 3.6765 5.97849 3.62119 5.65492L4.82595 4.75912C5.11752 5.09353 5.58726 5.15028 5.91915 4.75912L6.41793 5.12976C6.24729 6.14751 7.21672 6.82842 7.7877 6.09198C8.06146 5.73945 8.08397 5.25168 7.93489 4.87502L8.77682 3.79088C9.06935 3.98283 9.44812 3.95386 9.72188 3.60133C10.2329 2.94336 9.86907 1.81333 9.14715 1.81333ZM9.37029 2.57392C9.17247 2.31918 8.83213 2.50027 8.83213 2.86125C8.83213 3.22104 9.17247 3.40333 9.37029 3.14859C9.49312 2.98923 9.49312 2.73207 9.37029 2.57392ZM7.43517 5.06457C7.23734 4.80983 6.89701 4.99092 6.89701 5.3519C6.89701 5.7129 7.23735 5.89398 7.43517 5.63924C7.55893 5.47988 7.55893 5.22272 7.43517 5.06457ZM5.59566 3.6967C5.33597 3.36229 4.91594 3.78 5.10063 4.1917C5.19908 4.40297 5.44097 4.47058 5.59566 4.27138C5.71849 4.11202 5.71849 3.85485 5.59566 3.6967ZM3.0503 5.58853C2.85247 5.33379 2.51214 5.51488 2.51214 5.87587C2.51214 6.23685 2.85248 6.41794 3.0503 6.1632C3.17312 6.00505 3.17312 5.74668 3.0503 5.58853ZM8.82747 6.01711C8.68965 6.01711 8.57808 6.16078 8.57808 6.33827V12.8262C8.57808 13.0037 8.68964 13.1474 8.82747 13.1474H10.2038C10.3416 13.1474 10.4532 13.0037 10.4532 12.8262V6.33827C10.4532 6.16079 10.3417 6.01711 10.2038 6.01711H8.82747ZM9.95536 6.65818H9.07685V12.5051H9.95536V6.65818ZM6.69546 8.01397C6.55764 8.01397 6.44606 8.15763 6.44606 8.33512V12.8262C6.44606 13.0037 6.55763 13.1473 6.69546 13.1473H8.07181C8.20963 13.1473 8.32121 13.0037 8.32121 12.8262V8.33388C8.32121 8.15641 8.20964 8.01273 8.07181 8.01273L6.69546 8.01397ZM7.82335 8.65504H6.94484V12.5051H7.82335V8.65504ZM4.56345 7.11813C4.42563 7.11813 4.31405 7.2618 4.31405 7.43929V12.8263C4.31405 13.0038 4.42562 13.1475 4.56345 13.1475H5.9398C6.07762 13.1475 6.1892 13.0038 6.1892 12.8263V7.43929C6.1892 7.26181 6.07763 7.11813 5.9398 7.11813H4.56345ZM5.69133 7.76041H4.81283V12.5061H5.69133V7.76041ZM2.43144 9.32747C2.29362 9.32747 2.18204 9.47114 2.18204 9.64862V12.8261C2.18204 13.0036 2.29361 13.1473 2.43144 13.1473H3.80779C3.94561 13.1473 4.05719 13.0036 4.05719 12.8261V9.64862C4.05719 9.47115 3.94562 9.32747 3.80779 9.32747H2.43144ZM3.55932 9.96854H2.68082V12.5051H3.55932V9.96854ZM10.0023 15.2601H7.24692L6.51 16.9032H10.7384L10.0023 15.2601ZM2.93672 19.3589H14.3123V18.4523C14.3123 17.9536 13.9954 17.5456 13.6082 17.5456L3.64102 17.5444C3.25381 17.5444 2.93692 17.9536 2.93692 18.451L2.93672 19.3589Z" fill="#FF6665"/>
</svg>
