<svg width="21" height="20" viewBox="0 0 21 20" fill="none" xmlns="http://www.w3.org/2000/svg">
<path d="M19.0376 0.00107834H1.96355C1.1561 0.00107834 0.5 0.824584 0.5 1.83807V14.0825C0.5 14.5909 0.666563 15.0525 0.932895 15.3868V15.3921H0.937123C1.20093 15.7179 1.56279 15.9195 1.96272 15.9195H8.88471L8.51861 16.8375H7.52092C7.44313 16.8375 7.36957 16.8842 7.32391 16.9627L5.83499 19.5139C5.71578 19.7145 5.83246 20 6.032 20H14.9672C15.1667 20 15.2808 19.7145 15.1642 19.5139L13.6752 16.9627C13.6296 16.8842 13.556 16.8375 13.4782 16.8375H12.4806L12.1145 15.9195H19.0364C19.8439 15.9195 20.5 15.096 20.5 14.0825V1.837C20.5 0.823506 19.8439 0 19.0364 0L19.0376 0.00107834ZM3.70617 13.7832H0.987808V3.10824H3.70617V13.7832ZM12.7234 17.4509H13.3558L14.4879 19.3908L6.51315 19.3897L7.64528 17.4498H12.7234L12.7234 17.4509ZM9.06585 16.8396L9.43195 15.9216H11.5702L11.9363 16.8396H9.06585ZM4.35552 13.7832V3.10824H16.6305V13.7821L4.35552 13.7832ZM20.0133 13.7832H17.2815V3.10824H20.0133V13.7832ZM20.0133 2.29321H0.988024V1.83688C0.988024 1.16087 1.42514 0.611155 1.96457 0.611155H19.0377C19.5763 0.611155 20.0143 1.15981 20.0143 1.83688V2.29321H20.0133Z" fill="#00BFA5"/>
<path d="M1.97098 11.1021L1.59473 11.9224L1.97098 12.7395H2.72432L3.10311 11.9224L2.72432 11.1021H1.97098Z" fill="#00BFA5"/>
<path d="M1.78681 9.45761L3.06181 7.85727C3.10493 7.80315 3.10493 7.71825 3.06181 7.66413C3.01869 7.61 2.95105 7.61 2.90793 7.66413L1.63293 9.26447C1.58981 9.31859 1.58981 9.40349 1.63293 9.45761C1.65491 9.4852 1.68281 9.49794 1.70902 9.49794C1.73523 9.49794 1.76567 9.48414 1.78512 9.45761H1.78681Z" fill="#00BFA5"/>
<path d="M12.9276 5.48346C12.9234 5.46966 12.9208 5.45586 12.9166 5.43994C12.9124 5.42615 12.9056 5.41235 12.8997 5.39962C12.8955 5.38901 12.8912 5.37839 12.887 5.36672C12.8633 5.32002 12.8304 5.2797 12.794 5.24998C12.7855 5.24149 12.7771 5.23937 12.7678 5.23088C12.7568 5.22239 12.7483 5.21496 12.7357 5.20966C12.7247 5.20435 12.712 5.20117 12.701 5.19586C12.6925 5.19268 12.6815 5.18737 12.6731 5.18525C12.6511 5.17994 12.63 5.17676 12.608 5.17676H8.3983C8.37631 5.17676 8.35517 5.17994 8.33319 5.18525C8.3222 5.18525 8.31375 5.19374 8.30529 5.19586C8.2943 5.20117 8.28161 5.20435 8.27062 5.20966C8.25963 5.21496 8.24864 5.22345 8.23849 5.23088C8.23004 5.23619 8.22158 5.24149 8.21228 5.24998C8.17508 5.2797 8.14295 5.32109 8.11928 5.36672C8.11505 5.37733 8.11082 5.38794 8.1066 5.39962C8.09983 5.41341 8.09391 5.42721 8.08969 5.43994C8.08546 5.45374 8.08292 5.46754 8.0787 5.48346C8.07616 5.49725 8.07193 5.50786 8.07024 5.51848C8.06601 5.54607 8.06348 5.5726 8.06348 5.60019V10.884C8.06348 10.9116 8.06601 10.9382 8.07024 10.9657C8.07024 10.9795 8.077 10.9902 8.0787 11.0008C8.08292 11.0146 8.08546 11.0284 8.08969 11.0443C8.09391 11.0581 8.10068 11.0719 8.1066 11.0846C8.11082 11.0952 8.11505 11.1058 8.11928 11.1175C8.14295 11.1642 8.17593 11.2045 8.21228 11.2342C8.22074 11.2427 8.22919 11.2449 8.23849 11.2533C8.24949 11.2618 8.26048 11.2693 8.27062 11.2746C8.28162 11.2799 8.29261 11.2831 8.30529 11.2884C8.31374 11.2915 8.32474 11.2969 8.33319 11.299C8.35517 11.3043 8.37631 11.3075 8.3983 11.3075H12.608C12.63 11.3075 12.6511 11.3043 12.6731 11.299C12.6841 11.299 12.6925 11.2905 12.701 11.2884C12.712 11.2831 12.7247 11.2799 12.7357 11.2746C12.7466 11.2693 12.7576 11.2608 12.7678 11.2533C12.7762 11.248 12.7847 11.2427 12.794 11.2342C12.8312 11.2045 12.8633 11.1631 12.887 11.1175C12.8912 11.1069 12.8955 11.0963 12.8997 11.0846C12.9064 11.0708 12.9124 11.057 12.9166 11.0443C12.9208 11.0305 12.9234 11.0167 12.9276 11.0008C12.9301 10.9902 12.9343 10.9764 12.936 10.9657C12.9403 10.9382 12.9428 10.9116 12.9428 10.884V5.60019C12.9428 5.5726 12.9403 5.54607 12.936 5.51848C12.936 5.50468 12.9293 5.49407 12.9276 5.48346ZM11.7929 6.02363L10.501 7.64521L9.20906 6.02363H11.7937H11.7929ZM8.73214 6.6211L10.0241 8.24269L8.73214 9.86427V6.62018V6.6211ZM9.20899 10.4629L10.5009 8.8413L11.7929 10.4629H9.20826H9.20899ZM12.2698 9.86541L10.9778 8.24383L12.2698 6.62224V9.86633V9.86541Z" fill="#00BFA5"/>
<path d="M13.1248 9.22461L13.1375 12.9792L13.9492 12.2459L14.9706 12.1673L13.124 9.22563L13.1248 9.22461ZM13.8731 11.9797L13.3514 12.4498L13.343 10.0132L14.5444 11.9287L13.8731 11.9807L13.8731 11.9797Z" fill="#00BFA5"/>
<path d="M2.34665 4.1709L1.54004 5.92938H3.15664L2.34665 4.1709Z" fill="#00BFA5"/>
<path d="M17.8446 4.67597H19.4679C19.5288 4.67597 19.5761 4.61654 19.5761 4.54014C19.5761 4.46373 19.5288 4.4043 19.4679 4.4043H17.8446C17.7837 4.4043 17.7363 4.46373 17.7363 4.54014C17.7363 4.61654 17.7837 4.67597 17.8446 4.67597Z" fill="#00BFA5"/>
<path d="M17.8446 6.2956H19.4679C19.5288 6.2956 19.5761 6.23617 19.5761 6.15976C19.5761 6.08336 19.5288 6.02393 19.4679 6.02393H17.8446C17.7837 6.02393 17.7363 6.08336 17.7363 6.15976C17.7363 6.23617 17.7837 6.2956 17.8446 6.2956Z" fill="#00BFA5"/>
<path d="M17.8446 7.91718H19.4679C19.5288 7.91718 19.5761 7.85776 19.5761 7.78135C19.5761 7.70494 19.5288 7.64551 19.4679 7.64551H17.8446C17.7837 7.64551 17.7363 7.70494 17.7363 7.78135C17.7363 7.85776 17.7837 7.91718 17.8446 7.91718Z" fill="#00BFA5"/>
<path d="M17.8446 9.53974H19.4679C19.5288 9.53974 19.5761 9.48031 19.5761 9.4039C19.5761 9.3275 19.5288 9.26807 19.4679 9.26807H17.8446C17.7837 9.26807 17.7363 9.3275 17.7363 9.4039C17.7363 9.48031 17.7837 9.53974 17.8446 9.53974Z" fill="#00BFA5"/>
<path d="M17.8446 11.1613H19.4679C19.5288 11.1613 19.5761 11.1019 19.5761 11.0255C19.5761 10.9491 19.5288 10.8896 19.4679 10.8896H17.8446C17.7837 10.8896 17.7363 10.9491 17.7363 11.0255C17.7363 11.1019 17.7837 11.1613 17.8446 11.1613Z" fill="#00BFA5"/>
<path d="M19.4679 12.5088H17.8446C17.7837 12.5088 17.7363 12.5682 17.7363 12.6446C17.7363 12.721 17.7837 12.7805 17.8446 12.7805H19.4679C19.5288 12.7805 19.5761 12.721 19.5761 12.6446C19.5761 12.5682 19.5288 12.5088 19.4679 12.5088Z" fill="#00BFA5"/>
</svg>
