<svg width="20" height="20" viewBox="0 0 20 20" fill="none" xmlns="http://www.w3.org/2000/svg">
<path d="M2.75889 16.5219C2.94933 16.5219 3.10372 16.3273 3.10372 16.0871C3.10372 15.847 2.94933 15.6523 2.75889 15.6523C2.56845 15.6523 2.41406 15.847 2.41406 16.0871C2.41406 16.3273 2.56845 16.5219 2.75889 16.5219Z" fill="#00BFA5"/>
<path fill-rule="evenodd" clip-rule="evenodd" d="M0.689655 14.3478H19.3103V15.2174C19.3103 15.4574 19.1559 15.6522 18.9655 15.6522H3.7931C3.60276 15.6522 3.44828 15.847 3.44828 16.087C3.44828 16.327 3.60276 16.5217 3.7931 16.5217H7.55759C7.49414 17.1987 7.29276 18.4848 6.65793 19.2513C6.55621 19.3739 6.52414 19.5626 6.57655 19.7274C6.62897 19.8922 6.75586 20 6.89655 20H13.1034C13.2441 20 13.371 19.8922 13.4234 19.7274C13.4759 19.5626 13.4438 19.3739 13.3421 19.2513C12.7072 18.4848 12.5059 17.1987 12.4424 16.5217H18.9655C19.5369 16.5217 20 15.9378 20 15.2174V1.30435C20 0.583913 19.5369 0 18.9655 0H18.2759C18.0855 0 17.931 0.194783 17.931 0.434783C17.931 0.674783 18.0855 0.869565 18.2759 0.869565H18.9655C19.1559 0.869565 19.3103 1.06435 19.3103 1.30435V13.4783H0.689655V1.30435C0.689655 1.06435 0.844138 0.869565 1.03448 0.869565H17.2414C17.4317 0.869565 17.5862 0.674783 17.5862 0.434783C17.5862 0.194783 17.4317 0 17.2414 0C17.2414 0 3.68931 0 1.03448 0C0.463103 0 0 0.583913 0 1.30435V15.2174C0 15.9378 0.463103 16.5217 1.03448 16.5217H1.72414C1.91448 16.5217 2.06897 16.327 2.06897 16.087C2.06897 15.847 1.91448 15.6522 1.72414 15.6522H1.03448C0.844138 15.6522 0.689655 15.4574 0.689655 15.2174V14.3478ZM11.7541 16.5217H8.24586C8.19 17.1122 8.03241 18.2161 7.6 19.1304H12.4C11.9676 18.2161 11.81 17.1122 11.7541 16.5217Z" fill="#00BFA5"/>
<path fill-rule="evenodd" clip-rule="evenodd" d="M9.65564 7.17381V6.30424C9.65564 6.01598 9.56495 5.73946 9.40323 5.53555C9.24151 5.33163 9.0222 5.21729 8.79357 5.21729C7.46047 5.21729 3.91978 5.21729 2.58668 5.21729C2.35806 5.21729 2.13875 5.33163 1.97702 5.53555C1.8153 5.73946 1.72461 6.01598 1.72461 6.30424C1.72461 7.55381 1.72461 10.2721 1.72461 11.5216C1.72461 11.8099 1.8153 12.0864 1.97702 12.2903C2.13875 12.4942 2.35806 12.6086 2.58668 12.6086C3.91978 12.6086 7.46047 12.6086 8.79357 12.6086C9.0222 12.6086 9.24151 12.4942 9.40323 12.2903C9.56495 12.0864 9.65564 11.8099 9.65564 11.5216C9.65564 10.5138 9.65564 8.47815 9.65564 8.47815C9.65564 8.23815 9.50116 8.04337 9.31082 8.04337C9.12047 8.04337 8.96599 8.23815 8.96599 8.47815V11.5216C8.96599 11.5795 8.94771 11.6347 8.91564 11.6755C8.88323 11.716 8.83944 11.739 8.79357 11.739H2.58668C2.54082 11.739 2.49702 11.716 2.46461 11.6755C2.43254 11.6347 2.41426 11.5795 2.41426 11.5216V6.30424C2.41426 6.24642 2.43254 6.1912 2.46461 6.15033C2.49702 6.10989 2.54082 6.08685 2.58668 6.08685H8.79357C8.83944 6.08685 8.88323 6.10989 8.91564 6.15033C8.94771 6.1912 8.96599 6.24642 8.96599 6.30424V7.17381C8.96599 7.41381 9.12047 7.60859 9.31082 7.60859C9.50116 7.60859 9.65564 7.41381 9.65564 7.17381Z" fill="#00BFA5"/>
<path fill-rule="evenodd" clip-rule="evenodd" d="M7.39616 9.30169C7.51305 9.22821 7.58685 9.07778 7.58685 8.913C7.58685 8.74821 7.51305 8.59778 7.39616 8.5243L4.98236 7.00256C4.87547 6.93517 4.74857 6.94213 4.64685 7.02126C4.54512 7.10082 4.4834 7.24039 4.4834 7.39126V10.4347C4.4834 10.5856 4.54512 10.7252 4.64685 10.8047C4.74857 10.8839 4.87547 10.8908 4.98236 10.8234L7.39616 9.30169ZM6.47098 8.913L5.17305 9.73126V8.09474L6.47098 8.913Z" fill="#00BFA5"/>
<path fill-rule="evenodd" clip-rule="evenodd" d="M10.6896 6.08685H17.9309C18.1213 6.08685 18.2758 5.89207 18.2758 5.65207C18.2758 5.41207 18.1213 5.21729 17.9309 5.21729H10.6896C10.4992 5.21729 10.3447 5.41207 10.3447 5.65207C10.3447 5.89207 10.4992 6.08685 10.6896 6.08685Z" fill="#00BFA5"/>
<path fill-rule="evenodd" clip-rule="evenodd" d="M10.6896 7.82611H16.8965C17.0868 7.82611 17.2413 7.63133 17.2413 7.39133C17.2413 7.15133 17.0868 6.95654 16.8965 6.95654H10.6896C10.4992 6.95654 10.3447 7.15133 10.3447 7.39133C10.3447 7.63133 10.4992 7.82611 10.6896 7.82611Z" fill="#00BFA5"/>
<path fill-rule="evenodd" clip-rule="evenodd" d="M10.6896 9.56537H17.2413C17.4316 9.56537 17.5861 9.37058 17.5861 9.13058C17.5861 8.89058 17.4316 8.6958 17.2413 8.6958H10.6896C10.4992 8.6958 10.3447 8.89058 10.3447 9.13058C10.3447 9.37058 10.4992 9.56537 10.6896 9.56537Z" fill="#00BFA5"/>
<path fill-rule="evenodd" clip-rule="evenodd" d="M10.6896 11.3046H14.6551C14.8454 11.3046 14.9999 11.1098 14.9999 10.8698C14.9999 10.6298 14.8454 10.4351 14.6551 10.4351H10.6896C10.4992 10.4351 10.3447 10.6298 10.3447 10.8698C10.3447 11.1098 10.4992 11.3046 10.6896 11.3046Z" fill="#00BFA5"/>
<path fill-rule="evenodd" clip-rule="evenodd" d="M16.7242 2.60882H17.4138C17.6042 2.60882 17.7587 2.80361 17.7587 3.04361C17.7587 3.28361 17.6042 3.47839 17.4138 3.47839H2.58624C2.3959 3.47839 2.24141 3.28361 2.24141 3.04361C2.24141 2.80361 2.3959 2.60882 2.58624 2.60882H15.6897C15.88 2.60882 16.0345 2.41404 16.0345 2.17404C16.0345 1.93404 15.88 1.73926 15.6897 1.73926H2.58624C2.01521 1.73926 1.55176 2.32361 1.55176 3.04361C1.55176 3.76361 2.01521 4.34795 2.58624 4.34795H17.4138C17.9849 4.34795 18.4483 3.76361 18.4483 3.04361C18.4483 2.32361 17.9849 1.73926 17.4138 1.73926H16.7242C16.5338 1.73926 16.3793 1.93404 16.3793 2.17404C16.3793 2.41404 16.5338 2.60882 16.7242 2.60882Z" fill="#00BFA5"/>
</svg>
