<svg width="21" height="20" viewBox="0 0 21 20" fill="none" xmlns="http://www.w3.org/2000/svg">
<path fill-rule="evenodd" clip-rule="evenodd" d="M10.7038 8.4751L11.7244 7.50054C11.8606 7.37044 11.8606 7.15895 11.7244 7.02885C11.5881 6.89875 11.3667 6.89875 11.2304 7.02885L10.2099 8.00341C10.0736 8.13351 10.0736 8.345 10.2099 8.4751C10.3461 8.6052 10.5676 8.6052 10.7038 8.4751Z" fill="#7ABF00"/>
<path fill-rule="evenodd" clip-rule="evenodd" d="M9.0957 7.45929L9.50896 6.10902C9.56413 5.92876 9.47092 5.74987 9.30107 5.71002C9.13122 5.67018 8.94833 5.7843 8.89316 5.96456L8.47989 7.31483C8.42472 7.49509 8.51793 7.67399 8.68778 7.71383C8.85764 7.75368 9.04053 7.63955 9.0957 7.45929Z" fill="#7ABF00"/>
<path fill-rule="evenodd" clip-rule="evenodd" d="M11.4792 10.1458L12.8499 9.82633C13.0329 9.78368 13.1333 9.59219 13.0739 9.39923C13.0144 9.20627 12.8174 9.08411 12.6344 9.12676L11.2637 9.44625C11.0807 9.48891 10.9803 9.6804 11.0397 9.87336C11.0992 10.0663 11.2962 10.1885 11.4792 10.1458Z" fill="#7ABF00"/>
<path fill-rule="evenodd" clip-rule="evenodd" d="M4.30995 17.4598L6.6704 19.7139C7.07044 20.0959 7.71971 20.0959 8.12045 19.7139L8.18468 19.6525C8.58472 19.2699 8.58472 18.6505 8.18468 18.2678L5.84797 16.0364L6.05323 15.8404L12.0985 13.9164C12.213 13.8797 12.2996 13.789 12.3275 13.677C12.3554 13.5644 12.3205 13.4464 12.2346 13.3644L9.93005 11.1636L10.1932 10.9123C10.6114 10.5129 10.6114 9.86558 10.1932 9.46624L9.17325 8.49154C8.75506 8.0922 8.07715 8.0922 7.65896 8.49154L7.39507 8.74288L5.09049 6.54282C5.00532 6.46082 4.88173 6.42748 4.76375 6.45349C4.64576 6.48015 4.55083 6.56349 4.51313 6.67282L2.49756 12.4457L1.02518 13.8517C0.32494 14.5204 0.32494 15.6038 1.02518 16.2724L2.04588 17.2465C2.66094 17.8345 3.6132 17.9051 4.30995 17.4598ZM5.35438 16.5078L4.82728 17.0111L7.16399 19.2425C7.29175 19.3645 7.4991 19.3645 7.62686 19.2425L7.69109 19.1812C7.81885 19.0592 7.81885 18.8612 7.69109 18.7392L5.35438 16.5078ZM2.80266 13.097L5.37115 15.5491L4.08654 16.7751C3.65928 17.1831 2.96671 17.1831 2.53945 16.7751L1.51877 15.8011C1.09151 15.3924 1.09151 14.7311 1.51877 14.323L2.80266 13.097ZM3.20199 12.5357L5.95898 15.1677L11.3417 13.4544L4.99623 7.39551L3.20199 12.5357ZM9.43646 10.6923L7.88866 9.2149L8.15255 8.96289C8.29777 8.82422 8.53374 8.82422 8.67896 8.96289L9.69965 9.93758C9.84556 10.0763 9.84556 10.3016 9.69965 10.4409L9.43646 10.6923Z" fill="#7ABF00"/>
<path fill-rule="evenodd" clip-rule="evenodd" d="M16.7707 0.307986C16.7357 0.185264 16.6317 0.0925968 16.5014 0.0683864C16.0127 -0.0234465 15.5092 -0.0234465 15.0205 0.0683864C14.8902 0.0925968 14.7861 0.185264 14.7512 0.307986L14.516 1.13281C14.3639 1.20043 14.2179 1.28058 14.0798 1.37241L13.2143 1.15452C13.0866 1.12279 12.9502 1.16287 12.8628 1.25804C12.535 1.61702 12.2841 2.03277 12.1223 2.48276C12.0795 2.60297 12.111 2.73571 12.2045 2.82504L12.8349 3.43197C12.8209 3.59226 12.8209 3.75255 12.8349 3.91284L12.2045 4.51977C12.111 4.6091 12.0795 4.74184 12.1223 4.86206C12.2841 5.31204 12.535 5.72779 12.8628 6.08678C12.9502 6.18195 13.0866 6.22202 13.2143 6.1903L14.0806 5.9724C14.2179 6.06424 14.3639 6.14438 14.516 6.212L14.7512 7.03683C14.7861 7.15955 14.8902 7.25222 15.0205 7.27643C15.5092 7.36826 16.0127 7.36826 16.5014 7.27643C16.6317 7.25222 16.7357 7.15955 16.7707 7.03683L17.0059 6.212C17.158 6.14438 17.304 6.06424 17.4421 5.9724L18.3076 6.1903C18.4352 6.22202 18.5716 6.18195 18.659 6.08678C18.9869 5.72779 19.2378 5.31204 19.3995 4.86206C19.4423 4.74184 19.4109 4.6091 19.3173 4.51977L18.687 3.91284C18.701 3.75255 18.701 3.59226 18.687 3.43197L19.3173 2.82504C19.4109 2.73571 19.4423 2.60297 19.3995 2.48276C19.2378 2.03277 18.9869 1.61702 18.659 1.25804C18.5716 1.16287 18.4352 1.12279 18.3076 1.15452L17.4412 1.37241C17.304 1.28058 17.158 1.20043 17.0059 1.13281L16.7707 0.307986ZM16.1561 0.690344L16.3764 1.46258C16.4052 1.56359 16.483 1.64624 16.5853 1.68464C16.789 1.76145 16.9796 1.86664 17.1518 1.99688C17.2375 2.06199 17.3512 2.08453 17.457 2.05782L18.2674 1.85412C18.4282 2.05532 18.5611 2.27488 18.6634 2.50864L18.0733 3.07633C17.9955 3.15146 17.9596 3.25666 17.9754 3.36018C18.0077 3.56722 18.0077 3.7776 17.9754 3.98464C17.9596 4.08816 17.9955 4.19335 18.0733 4.26849L18.6634 4.83618C18.5611 5.06994 18.4282 5.2895 18.2683 5.4907L17.457 5.287C17.3512 5.26028 17.2375 5.28282 17.1518 5.34794C16.9796 5.47818 16.789 5.58337 16.5853 5.66017C16.483 5.69858 16.4052 5.78122 16.3764 5.88224L16.1561 6.65447C15.8938 6.68619 15.628 6.68619 15.3658 6.65447L15.1454 5.88224C15.1166 5.78122 15.0388 5.69858 14.9365 5.66017C14.7328 5.58337 14.5422 5.47818 14.37 5.34794C14.2843 5.28282 14.1707 5.26028 14.0649 5.287L13.2545 5.4907C13.0936 5.2895 12.9607 5.06994 12.8584 4.83618L13.4486 4.26849C13.5264 4.19335 13.5622 4.08816 13.5465 3.98464C13.5141 3.7776 13.5141 3.56722 13.5465 3.36018C13.5622 3.25666 13.5264 3.15146 13.4486 3.07633L12.8584 2.50864C12.9607 2.27488 13.0936 2.05532 13.2536 1.85412L14.0649 2.05782C14.1707 2.08453 14.2843 2.06199 14.37 1.99688C14.5422 1.86664 14.7328 1.76145 14.9365 1.68464C15.0388 1.64624 15.1166 1.56359 15.1454 1.46258L15.3658 0.690344C15.628 0.65862 15.8938 0.65862 16.1561 0.690344ZM15.7609 2.07034C14.8351 2.07034 14.0832 2.78831 14.0832 3.67241C14.0832 4.55651 14.8351 5.27447 15.7609 5.27447C16.6867 5.27447 17.4386 4.55651 17.4386 3.67241C17.4386 2.78831 16.6867 2.07034 15.7609 2.07034ZM15.7609 2.73655C16.3021 2.73655 16.7409 3.15564 16.7409 3.67241C16.7409 4.18918 16.3021 4.60827 15.7609 4.60827C15.2198 4.60827 14.7809 4.18918 14.7809 3.67241C14.7809 3.15564 15.2198 2.73655 15.7609 2.73655Z" fill="#7ABF00"/>
<path fill-rule="evenodd" clip-rule="evenodd" d="M20.5011 11.5594C20.5011 11.2886 20.3885 11.0281 20.1877 10.8364C19.9869 10.6446 19.7141 10.5371 19.4305 10.5371C18.3946 10.5371 16.4971 10.5371 15.4612 10.5371C15.1776 10.5371 14.9048 10.6446 14.704 10.8364C14.5032 11.0281 14.3906 11.2886 14.3906 11.5594C14.3906 12.3243 14.3906 13.5513 14.3906 14.3162C14.3906 14.587 14.5032 14.8475 14.704 15.0393C14.9048 15.231 15.1776 15.3385 15.4612 15.3385C16.4971 15.3385 18.3946 15.3385 19.4305 15.3385C19.7141 15.3385 19.9869 15.231 20.1877 15.0393C20.3885 14.8475 20.5011 14.587 20.5011 14.3162V11.5594ZM19.8029 11.5594V14.3162C19.8029 14.4103 19.7639 14.5007 19.6936 14.5674C19.6237 14.6346 19.529 14.6718 19.4305 14.6718H15.4612C15.3627 14.6718 15.2679 14.6346 15.1981 14.5674C15.1278 14.5007 15.0888 14.4103 15.0888 14.3162V11.5594C15.0888 11.4653 15.1278 11.3749 15.1981 11.3082C15.2679 11.241 15.3627 11.2038 15.4612 11.2038H19.4305C19.529 11.2038 19.6237 11.241 19.6936 11.3082C19.7639 11.3749 19.8029 11.4653 19.8029 11.5594Z" fill="#7ABF00"/>
<path fill-rule="evenodd" clip-rule="evenodd" d="M18.4325 12.2522C18.0317 12.0609 17.5545 11.8324 17.1769 11.652C16.9274 11.5336 16.6316 11.5459 16.395 11.6859C16.1578 11.8258 16.014 12.0726 16.014 12.3388C16.014 12.7105 16.014 13.1661 16.014 13.5378C16.014 13.804 16.1578 14.0508 16.395 14.1907C16.6316 14.3307 16.9274 14.343 17.1769 14.2246C17.5545 14.0443 18.0317 13.8158 18.4325 13.6244C18.7052 13.4949 18.877 13.2286 18.877 12.9383C18.877 12.648 18.7052 12.3818 18.4325 12.2522ZM18.1203 12.8485C18.1564 12.8654 18.1789 12.8999 18.1789 12.9383C18.1789 12.9767 18.1564 13.0112 18.1203 13.0281C17.7195 13.2195 17.2423 13.448 16.8647 13.6283C16.832 13.6439 16.7931 13.642 16.7618 13.6238C16.7311 13.6055 16.712 13.573 16.712 13.5378V12.3388C16.712 12.3037 16.7311 12.2711 16.7618 12.2529C16.7931 12.2346 16.832 12.2327 16.8647 12.2483C17.2423 12.4286 17.7195 12.6571 18.1203 12.8485Z" fill="#7ABF00"/>
<path fill-rule="evenodd" clip-rule="evenodd" d="M10.0366 0.999541C10.0366 0.7342 9.92626 0.480192 9.73008 0.292186C9.5332 0.104848 9.26721 -0.000488281 8.98934 -0.000488281C7.87929 -0.000488281 5.7227 -0.000488281 4.61265 -0.000488281C4.33479 -0.000488281 4.06881 0.104848 3.87193 0.292186C3.67576 0.480192 3.56543 0.7342 3.56543 0.999541C3.56543 1.70689 3.56543 2.81759 3.56543 3.52495C3.56543 3.79029 3.67576 4.04496 3.87193 4.2323C4.06881 4.41964 4.33479 4.52498 4.61265 4.52498C5.7227 4.52498 7.87929 4.52498 8.98934 4.52498C9.26721 4.52498 9.5332 4.41964 9.73008 4.2323C9.92626 4.04496 10.0366 3.79029 10.0366 3.52495C10.0366 2.81759 10.0366 1.70689 10.0366 0.999541ZM4.26358 1.02621V3.52495C4.26358 3.61362 4.3006 3.69829 4.36552 3.76095C4.43115 3.82362 4.5198 3.85829 4.61265 3.85829H8.98934C9.0822 3.85829 9.17086 3.82362 9.23649 3.76095C9.30142 3.69829 9.33842 3.61362 9.33842 3.52495V1.02621L7.01918 2.79826C6.89142 2.8956 6.7106 2.8956 6.58284 2.79826L4.26358 1.02621ZM6.80065 2.11091L8.69264 0.666198H4.90938L6.80065 2.11091Z" fill="#7ABF00"/>
</svg>
