<svg width="21" height="20" viewBox="0 0 21 20" fill="none" xmlns="http://www.w3.org/2000/svg">
<path d="M10.5 0C9.90292 0 9.41892 0.484027 9.41892 1.08108V8.91895H1.58108C0.984027 8.91895 0.5 9.40295 0.5 10C0.5 10.5971 0.984027 11.0811 1.58108 11.0811H9.41892V18.9189C9.41892 19.516 9.90292 20 10.5 20C11.0971 20 11.5811 19.516 11.5811 18.9189V11.0811H19.4189C20.016 11.0811 20.5 10.5971 20.5 10C20.5 9.40295 20.016 8.91895 19.4189 8.91895H11.5811V1.08108C11.5811 0.484027 11.0971 0 10.5 0Z" fill="#886CFF"/>
</svg>
