<svg width="21" height="20" viewBox="0 0 21 20" fill="none" xmlns="http://www.w3.org/2000/svg">
<path d="M19.942 4.25C18.5425 1.65625 14.8441 0 10.4959 0C4.99814 0 0.5 2.8125 0.5 6.25C0.5 8.15625 1.84944 9.9375 4.24845 11.125V12.5625H3.34882C3.19888 12.5625 3.04894 12.625 2.94899 12.6875C2.84903 12.7812 2.84903 12.875 2.89901 12.9688L4.74824 16.1875C4.79822 16.3125 4.99814 16.4062 5.19806 16.4062H6.24762V19.6875C6.24762 19.875 6.44754 20 6.74741 20H14.2943C14.5942 20 14.7941 19.875 14.7941 19.6875V16.4062H15.8437C16.0436 16.4062 16.2435 16.3125 16.2935 16.1875L18.1427 12.9688C18.1927 12.875 18.1927 12.7812 18.0927 12.6875C17.9928 12.5937 17.8428 12.5625 17.6929 12.5625H16.7933V11.125C20.0419 9.46875 21.3414 6.78125 19.942 4.25ZM1.49959 6.25C1.49959 3.15625 5.54791 0.625 10.4959 0.625C14.3942 0.625 17.7429 2.125 18.9923 4.4375C20.1419 6.59375 19.1923 8.875 16.5933 10.375C16.1935 9.71875 15.1939 9.25 14.0444 9.25H12.495C13.1448 8.9375 13.6945 8.5 14.1444 7.9375C14.4942 7.78125 14.7941 7.5 14.894 7.15625C14.994 6.84375 14.944 6.53125 14.7441 6.3125C14.7441 6.03125 15.5938 4.5 14.4942 3.53125C14.0444 3.125 13.4446 3.03125 13.1448 3C12.1952 2.53125 11.2456 2.28125 10.246 2.28125C8.29677 2.28125 6.79739 3.25 6.14766 4.1875C5.64787 4.9375 5.69785 5.6875 6.24762 6.1875C5.94775 6.40625 5.79781 6.8125 5.99773 7.21875C6.19764 7.625 6.59748 7.9375 7.04729 8.03125C7.44713 8.53125 7.94692 8.9375 8.49669 9.21875V9.25H6.89735C5.74783 9.25 4.74824 9.71875 4.34841 10.375C2.54915 9.3125 1.49959 7.84375 1.49959 6.25ZM9.54626 9.59375C9.84613 9.65625 10.196 9.6875 10.5458 9.6875C10.8457 9.6875 11.1456 9.65625 11.3955 9.59375C11.3955 10.375 9.54626 10.3438 9.54626 9.59375ZM14.0444 5.125C13.5946 4.65625 12.8949 4.1875 12.0952 4.09375C11.8453 4.0625 11.6454 4.15625 11.5454 4.28125C11.0956 5 8.99648 5.53125 8.59665 5.125C8.59665 5.09375 8.54667 5.09375 8.54667 5.0625C8.44671 4.9375 8.24679 4.84375 8.04688 4.875C7.4971 4.90625 7.14725 5.15625 6.89735 5.40625C6.84737 5.125 6.89735 4.78125 7.14725 4.4375C7.64704 3.6875 8.79657 2.90625 10.2959 2.90625C11.0956 2.90625 11.8453 3.125 12.645 3.53125C12.7449 3.5625 12.8449 3.59375 12.9449 3.59375C12.9449 3.59375 13.3947 3.625 13.6945 3.90625C13.8945 4.125 14.0944 4.5 14.0444 5.125ZM7.04729 6.625C7.59706 6.53125 7.24721 6 7.89694 5.59375C8.99648 6.3125 11.3955 5.65625 12.2451 4.78125C12.9448 5.03125 13.4946 5.75 13.7445 6.21875C13.7445 6.375 13.6945 6.5 13.8445 6.59375C14.0944 6.78125 13.8445 7.3125 13.4946 7.4375C13.3947 7.46875 13.2947 7.53125 13.2447 7.59375C12.645 8.5 11.6454 9.03125 10.5458 9.03125C9.49628 9.03125 8.49669 8.53125 7.89694 7.625C7.79698 7.5 7.64704 7.4375 7.44712 7.4375C7.44712 7.4375 7.44712 7.4375 7.39715 7.4375C7.34717 7.4375 7.09727 7.3125 6.99731 7.0625C6.89735 6.8125 6.99731 6.65625 7.04729 6.625ZM5.24803 10.9688C5.24803 10.375 5.99772 9.90625 6.94733 9.90625H8.64663C8.84655 10.3125 9.34634 10.6562 9.99607 10.75V12.5625H5.24803V10.9688ZM13.7445 19.375H7.24721V15.2812H13.7945V19.375H13.7445ZM15.4938 15.7812H14.7941V14.9688C14.7941 14.7812 14.5942 14.6562 14.2943 14.6562H6.74741C6.44754 14.6562 6.24762 14.7812 6.24762 14.9688V15.7812H5.49793L3.99855 13.1875C7.79698 13.1875 10.5458 13.1875 16.9432 13.1875L15.4938 15.7812ZM10.9957 12.5625V10.75C11.6454 10.625 12.1952 10.3125 12.3451 9.90625H14.0444C14.994 9.90625 15.7437 10.375 15.7437 10.9688V12.5625H10.9957Z" fill="#7ABF00"/>
</svg>
