<svg width="21" height="20" viewBox="0 0 21 20" fill="none" xmlns="http://www.w3.org/2000/svg">
<path d="M6.78747 16.6696C7.00609 16.6696 7.18347 16.8141 7.18347 16.9922C7.18347 17.1703 7.00609 17.3148 6.78747 17.3148H2.21288C1.74056 17.3148 1.31259 17.1577 1.00118 16.9039C0.691796 16.6519 0.5 16.3041 0.5 15.9193V1.39544C0.5 1.01236 0.692844 0.662007 1.00118 0.410827C1.31262 0.157109 1.74059 0 2.21288 0H13.4566C13.9269 0 14.3569 0.157102 14.6652 0.408289L14.689 0.430131C14.9849 0.682172 15.1695 1.02157 15.1695 1.39543V3.67711C15.1695 3.85521 14.9921 3.99971 14.7735 3.99971C14.5549 3.99971 14.3775 3.85521 14.3775 3.67711V1.39543C14.3775 1.19548 14.2796 1.01486 14.1238 0.879606L14.1053 0.867004C13.9392 0.729226 13.7062 0.645224 13.4556 0.645224H2.21185C1.95816 0.645224 1.72923 0.730917 1.56009 0.867004C1.39406 1.00226 1.29094 1.18961 1.29094 1.39627V15.9202C1.29094 16.1268 1.39406 16.3133 1.56009 16.4494C1.72921 16.5872 1.95918 16.6712 2.21185 16.6712H6.78644L6.78747 16.6696ZM15.8986 16.7897C16.0069 16.9426 15.944 17.14 15.7532 17.2282C15.5655 17.319 15.3232 17.2652 15.2149 17.1123L13.6257 14.8691L11.7912 14.0063C11.6035 13.9181 11.5375 13.7224 11.6458 13.5678C11.754 13.4149 11.9943 13.3611 12.1841 13.4493L14.0898 14.3466C14.1589 14.3743 14.2167 14.4171 14.2559 14.4734L15.8976 16.7897L15.8986 16.7897ZM10.0875 14.3121C10.3061 14.3121 10.4835 14.4566 10.4835 14.6347C10.4835 14.8128 10.3061 14.9573 10.0875 14.9573H8.13429C8.18482 15.5832 8.38798 16.1772 8.70973 16.7123L9.49349 16.3426C9.68118 16.2544 9.92352 16.3057 10.0318 16.4611C10.1432 16.614 10.0772 16.8114 9.8895 16.8997L9.10574 17.2693C9.31405 17.523 9.55432 17.7574 9.81832 17.9725C10.0823 18.1876 10.37 18.3833 10.6815 18.553L11.1331 17.9162C11.2414 17.7616 11.4838 17.7095 11.6715 17.7977C11.8612 17.886 11.9252 18.0817 11.8169 18.2346L11.3652 18.8756C12.0221 19.1377 12.7481 19.3016 13.5164 19.3444V17.7532C13.5164 17.5751 13.6958 17.4306 13.9124 17.4306C14.131 17.4306 14.3084 17.5751 14.3084 17.7532V19.3444C15.0798 19.3016 15.8058 19.1377 16.4627 18.8756L16.011 18.2346C15.9027 18.0817 15.9656 17.886 16.1564 17.7977C16.3441 17.7095 16.5864 17.7608 16.6947 17.9162L17.1464 18.553C17.4578 18.3833 17.7455 18.1892 18.0126 17.9742C18.2766 17.7566 18.5138 17.5222 18.7232 17.2685L17.9394 16.8988C17.7517 16.8106 17.6857 16.6132 17.7971 16.4603C17.9054 16.3057 18.1477 16.2536 18.3354 16.3418L19.1192 16.7115C19.4409 16.1763 19.642 15.5824 19.6946 14.9565H17.7414C17.5228 14.9565 17.3454 14.812 17.3454 14.6339C17.3454 14.4558 17.5228 14.3112 17.7414 14.3112H19.6946C19.642 13.6854 19.4409 13.0939 19.1192 12.5588L18.3354 12.9267C18.1457 13.015 17.9054 12.9637 17.7971 12.8083C17.6888 12.6554 17.7517 12.458 17.9425 12.3697L18.7242 12.0018C18.5159 11.7481 18.2756 11.5112 18.0116 11.2961C17.7476 11.081 17.4599 10.8878 17.1484 10.7172L16.6967 11.354C16.5885 11.5086 16.3461 11.5607 16.1584 11.4725C15.9687 11.3843 15.9047 11.1885 16.013 11.0339L16.4647 10.3954C15.8078 10.1333 15.0818 9.96783 14.3104 9.92666V11.5178C14.3104 11.6959 14.133 11.8404 13.9144 11.8404C13.6978 11.8404 13.5184 11.6959 13.5184 11.5178V9.92666C12.7501 9.96783 12.0241 10.1333 11.3672 10.3954L11.8189 11.0339C11.9272 11.1885 11.8643 11.3843 11.6735 11.4725C11.4858 11.5607 11.2435 11.5095 11.1352 11.354L10.6835 10.7172C10.3741 10.8869 10.0844 11.081 9.82036 11.2961C9.55636 11.5112 9.31607 11.7481 9.10778 12.0018L9.88945 12.3697C10.0792 12.4579 10.1431 12.6554 10.0349 12.8083C9.92658 12.9629 9.6863 13.015 9.49654 12.9267L8.71277 12.5588C8.39101 13.0939 8.18786 13.6854 8.13733 14.3112H10.0905L10.0875 14.3121ZM13.9123 9.27063C14.068 9.27063 14.2237 9.27483 14.3774 9.28323V6.06987C14.3774 5.89177 14.5548 5.74727 14.7734 5.74727C14.992 5.74727 15.1694 5.89177 15.1694 6.06987V9.36647C16.4842 9.57314 17.6619 10.0974 18.5726 10.84C19.7637 11.812 20.5 13.1546 20.5 14.6341C20.5 16.1161 19.7637 17.456 18.5726 18.4281C17.3794 19.4001 15.7314 20 13.9135 20C12.0975 20 10.4496 19.4001 9.25631 18.4281C8.25084 17.609 7.5692 16.5244 7.38149 15.3163H6.96179C6.7215 15.3163 6.50493 15.2365 6.34923 15.1079C6.19351 14.9811 6.09554 14.8047 6.09554 14.6114V13.8436C6.09554 13.6503 6.19351 13.4739 6.34923 13.3471C6.50494 13.2177 6.72152 13.1387 6.96179 13.1387H7.58776C7.82494 12.4716 8.21887 11.8567 8.73346 11.3232H6.96179C6.7215 11.3232 6.50493 11.2434 6.34923 11.1165C6.19351 10.9872 6.09554 10.8107 6.09554 10.6175V9.85217C6.09554 9.65895 6.19351 9.47999 6.34923 9.35315C6.50494 9.22629 6.72152 9.14648 6.96179 9.14648H12.8017C12.9255 9.14648 13.0451 9.16832 13.1503 9.20696L13.1771 9.21789C13.2297 9.23721 13.2802 9.26325 13.3277 9.29098C13.5205 9.27837 13.7154 9.27165 13.9134 9.27165L13.9123 9.27063ZM7.32787 14.6708V14.6339C7.32787 14.3457 7.35675 14.0592 7.40934 13.7845H6.96075C6.94013 13.7845 6.92157 13.7912 6.90816 13.8013C6.89475 13.8122 6.88753 13.8273 6.88753 13.8425V14.6103C6.88753 14.6255 6.89578 14.6406 6.90816 14.6515C6.92157 14.6624 6.94013 14.6708 6.96075 14.6708L7.32787 14.6708ZM9.46669 10.677C9.94416 10.3199 10.4887 10.0208 11.0796 9.79065H6.96065C6.94003 9.79065 6.92146 9.79737 6.90806 9.80745C6.89465 9.81837 6.88743 9.8335 6.88743 9.8503V10.6156C6.88743 10.6308 6.89568 10.6476 6.90806 10.6585C6.92146 10.6694 6.94002 10.6753 6.96065 10.6753H9.46556L9.46669 10.677ZM3.07817 12.7907H4.44355C4.73952 12.7907 5.01072 12.8898 5.20666 13.0486C5.40157 13.2074 5.52325 13.4292 5.52325 13.6703V14.7826C5.52325 15.0254 5.40156 15.2447 5.20666 15.4043C5.01176 15.5631 4.73952 15.6622 4.44355 15.6622H3.07817C2.78014 15.6622 2.51099 15.5631 2.31505 15.4043C2.12014 15.2455 1.99846 15.0254 1.99846 14.7826V13.6703C1.99846 13.4292 2.12015 13.2082 2.31505 13.0486C2.50996 12.8898 2.78014 12.7907 3.07817 12.7907ZM4.44355 13.4359H3.07817C2.99876 13.4359 2.92761 13.4636 2.87501 13.5048C2.82242 13.5477 2.79045 13.6056 2.79045 13.6703V14.7826C2.79045 14.8473 2.82242 14.9053 2.87501 14.9481C2.92761 14.9893 2.99876 15.017 3.07817 15.017H4.44355C4.52295 15.017 4.59411 14.9893 4.6467 14.9481C4.69723 14.9053 4.73126 14.8473 4.73126 14.7826V13.6703C4.73126 13.6056 4.69723 13.5477 4.6467 13.5048C4.59411 13.4636 4.52295 13.4359 4.44355 13.4359ZM3.07817 8.79922H4.44355C4.73952 8.79922 5.01072 8.89836 5.20666 9.05713C5.40157 9.21592 5.52325 9.43602 5.52325 9.6763V10.7903C5.52325 11.0314 5.40156 11.2507 5.20358 11.4095C5.01073 11.5682 4.73849 11.6674 4.44355 11.6674H3.07817C2.78014 11.6674 2.51099 11.5682 2.31505 11.4095L2.29133 11.3876C2.1088 11.2305 1.99845 11.0197 1.99845 10.7895V9.67547C1.99845 9.43435 2.12014 9.21509 2.31504 9.0563C2.50994 8.89752 2.78013 8.79839 3.07816 8.79839L3.07817 8.79922ZM4.44355 9.44443H3.07817C2.99876 9.44443 2.92761 9.47047 2.87501 9.51332C2.82242 9.55449 2.79045 9.61413 2.79045 9.67714V10.7911C2.79045 10.8491 2.81726 10.9029 2.86161 10.944L2.87501 10.955C2.92761 10.9978 2.99876 11.0239 3.07817 11.0239H4.44355C4.52295 11.0239 4.59411 10.9978 4.6467 10.955C4.6993 10.9138 4.73126 10.8558 4.73126 10.7911V9.67714C4.73126 9.61498 4.69723 9.55449 4.6467 9.51332C4.59411 9.47048 4.52295 9.44443 4.44355 9.44443ZM6.96187 5.57059H12.8018C13.0421 5.57059 13.2587 5.6504 13.4144 5.77726C13.5732 5.90664 13.668 6.08307 13.668 6.27629V7.04164C13.668 7.23486 13.5732 7.4113 13.4144 7.54066C13.2586 7.66752 13.0421 7.74733 12.8018 7.74733H6.96187C6.72158 7.74733 6.50501 7.66752 6.34931 7.54066C6.1936 7.4138 6.09562 7.23485 6.09562 7.04164V6.27629C6.09562 6.08306 6.19359 5.90662 6.34931 5.77978C6.50502 5.6504 6.7216 5.57143 6.96187 5.57143V5.57059ZM12.8018 6.2158H6.96187C6.94124 6.2158 6.92268 6.22252 6.90927 6.2326C6.89586 6.24352 6.88865 6.26033 6.88865 6.27545V7.0408C6.88865 7.0576 6.8969 7.07272 6.90927 7.08364C6.92268 7.09456 6.94124 7.10045 6.96187 7.10045H12.8018C12.8224 7.10045 12.841 7.09372 12.8544 7.08364C12.8678 7.07272 12.875 7.0576 12.875 7.0408V6.27545C12.875 6.26033 12.8668 6.24521 12.8544 6.2326C12.841 6.22168 12.8224 6.2158 12.8018 6.2158ZM6.96187 1.99591H12.8018C13.039 1.99591 13.2556 2.07572 13.4144 2.20426C13.5732 2.33364 13.668 2.51007 13.668 2.70077V3.46612C13.668 3.65935 13.5732 3.83578 13.4144 3.96515C13.2586 4.09452 13.0421 4.17182 12.8018 4.17182H6.96187C6.72158 4.17182 6.50501 4.09452 6.34931 3.96515C6.19359 3.83829 6.09562 3.66185 6.09562 3.46612V2.70077C6.09562 2.50754 6.19359 2.33111 6.34931 2.20426C6.50502 2.07488 6.7216 1.99591 6.96187 1.99591ZM12.8018 2.64112H6.96187C6.94124 2.64112 6.92268 2.64952 6.90927 2.66044C6.89586 2.67137 6.88865 2.68649 6.88865 2.70161V3.46696C6.88865 3.48376 6.8969 3.49888 6.90927 3.50981C6.92268 3.52073 6.94124 3.52661 6.96187 3.52661H12.8018C12.8224 3.52661 12.841 3.51989 12.8544 3.50981C12.8678 3.49888 12.875 3.48376 12.875 3.46696V2.70161C12.875 2.68649 12.8668 2.66969 12.8565 2.66044C12.841 2.64784 12.8224 2.64112 12.8008 2.64112H12.8018ZM3.07922 5.22454H4.4446C4.74057 5.22454 5.01178 5.32368 5.20772 5.48245C5.40263 5.64124 5.52431 5.86134 5.52431 6.10414V7.21646C5.52431 7.45757 5.40262 7.67684 5.20463 7.83562C5.01179 7.9944 4.73954 8.09353 4.4446 8.09353H3.07922C2.78119 8.09353 2.51205 7.9944 2.31611 7.8373L2.29239 7.81378C2.10986 7.65667 1.99951 7.44581 1.99951 7.21562V6.1033C1.99951 5.86051 2.12119 5.64125 2.31609 5.48162C2.511 5.32284 2.78118 5.22371 3.07921 5.22371L3.07922 5.22454ZM4.4446 5.86975H3.07922C2.99982 5.86975 2.92866 5.8958 2.87607 5.93864C2.82347 5.97981 2.79151 6.03946 2.79151 6.10414V7.21647C2.79151 7.27443 2.81832 7.3282 2.86266 7.36937L2.87607 7.38029C2.92866 7.42314 2.99982 7.44918 3.07922 7.44918H4.4446C4.52401 7.44918 4.59516 7.42314 4.64776 7.38029C4.69829 7.33912 4.73232 7.28115 4.73232 7.21647V6.10415C4.73232 6.03946 4.69829 5.97981 4.64776 5.93864C4.59516 5.8958 4.52401 5.86975 4.4446 5.86975ZM3.07922 1.64986H4.4446C4.74057 1.64986 5.01178 1.749 5.20772 1.90778C5.40263 2.06656 5.52431 2.28666 5.52431 2.52946V3.64178C5.52431 3.88289 5.40262 4.10383 5.20772 4.26346C5.01281 4.42224 4.74057 4.52137 4.4446 4.52137H3.07922C2.78119 4.52137 2.51205 4.42224 2.31611 4.26346C2.1212 4.10468 1.99952 3.88289 1.99952 3.64178V2.52946C1.99952 2.28666 2.12121 2.0674 2.31611 1.90778C2.51101 1.74899 2.78119 1.64986 3.07922 1.64986ZM4.4446 2.29507H3.07922C2.99982 2.29507 2.92866 2.3228 2.87607 2.36396C2.82347 2.40681 2.79151 2.46478 2.79151 2.52947V3.64179C2.79151 3.70648 2.82347 3.76444 2.87607 3.80729C2.92866 3.84846 2.99982 3.87618 3.07922 3.87618H4.4446C4.52401 3.87618 4.59516 3.84845 4.64776 3.80729C4.69829 3.76444 4.73232 3.70648 4.73232 3.64179V2.52947C4.73232 2.46478 4.69829 2.40681 4.64776 2.36396C4.59516 2.3228 4.52401 2.29507 4.4446 2.29507ZM14.3786 4.8415C14.3786 4.66508 14.556 4.5189 14.7746 4.5189C14.9933 4.5189 15.1706 4.66508 15.1706 4.8415V4.90199C15.1706 5.0801 14.9933 5.2246 14.7746 5.2246C14.556 5.2246 14.3786 5.0801 14.3786 4.90199V4.8415Z" fill="#5E6160"/>
</svg>
