<svg width="20" height="20" viewBox="0 0 20 20" fill="none" xmlns="http://www.w3.org/2000/svg">
<path d="M19.9931 12.5186C19.9881 12.4928 19.9793 12.4679 19.9654 12.4465C19.9506 12.4242 19.9299 12.4053 19.9072 12.389C19.9012 12.3847 19.8953 12.3804 19.8894 12.377C19.8835 12.3735 19.8795 12.3693 19.8736 12.3667L17.7325 11.2923V9.26013C17.7325 9.13828 17.62 9.04044 17.4797 9.04044C17.3395 9.04044 17.2269 9.13828 17.2269 9.26013V11.2339L14.9684 12.3667C14.9624 12.3693 14.9585 12.3735 14.9526 12.377C14.9456 12.3813 14.9397 12.3847 14.9338 12.3899C14.9111 12.4062 14.8903 12.425 14.8755 12.4473C14.8607 12.4697 14.8528 12.4945 14.8479 12.5194C14.8469 12.5263 14.8459 12.5323 14.8449 12.5392C14.8439 12.5452 14.8419 12.5503 14.8419 12.5563V14.8306L12.775 15.8672C12.6545 15.9282 12.613 16.062 12.6821 16.1676C12.7296 16.238 12.8145 16.2774 12.9014 16.2774C12.9448 16.2774 12.9883 16.268 13.0278 16.2483L15.1609 15.1781L17.2941 16.2483C17.3 16.2508 17.3069 16.2526 17.3128 16.2551C17.3197 16.2577 17.3266 16.2603 17.3336 16.2629C17.3622 16.2714 17.3908 16.2783 17.4205 16.2783C17.4501 16.2783 17.4787 16.2723 17.5074 16.2629C17.5143 16.2603 17.5212 16.2586 17.5281 16.2551C17.534 16.2526 17.5409 16.2517 17.5469 16.2483L19.8736 15.0812C19.9516 15.0417 20 14.9696 20 14.8906V12.5564C20 12.5504 19.998 12.5453 19.997 12.5393C19.996 12.5324 19.995 12.5264 19.994 12.5195L19.9931 12.5186ZM17.4788 12.74C17.619 12.74 17.7316 12.6421 17.7316 12.5203V11.7986L19.2406 12.5555L17.4195 13.4685L15.5985 12.5555L17.225 11.7394V12.5203C17.225 12.6421 17.3376 12.74 17.4778 12.74H17.4788ZM16.3352 14.3336C16.2651 14.228 16.11 14.1929 15.9895 14.2529L15.3456 14.5756V12.9357L17.1667 13.8487V15.6758L15.6656 14.9223L16.2433 14.6322C16.3638 14.5713 16.4053 14.4374 16.3362 14.3319L16.3352 14.3336ZM17.6723 15.6766V13.8496L19.4934 12.9365V14.7635L17.6723 15.6766ZM0.125429 7.63399L2.45211 8.80109C2.45804 8.80367 2.46495 8.80538 2.47088 8.80796C2.47779 8.81053 2.4847 8.81311 2.49162 8.81568C2.52026 8.82426 2.54889 8.83113 2.57852 8.83113C2.60815 8.83113 2.63679 8.82512 2.66543 8.81568C2.67234 8.81311 2.67925 8.81139 2.68617 8.80796C2.69209 8.80538 2.699 8.80452 2.70493 8.80109L4.91706 7.69148L6.37371 8.40804C6.41321 8.42692 6.45568 8.43637 6.49814 8.43637C6.58604 8.43637 6.67195 8.39603 6.71837 8.3248C6.7875 8.21925 6.74404 8.08539 6.62356 8.0253L5.15802 7.30446V5.10927C5.15802 5.10326 5.15604 5.09811 5.15506 5.09211C5.15407 5.08524 5.15308 5.07923 5.15209 5.07237C5.14715 5.04662 5.13827 5.02174 5.12444 5.00028C5.10963 4.97797 5.08889 4.95909 5.06518 4.94279C5.05926 4.9385 5.05333 4.93421 5.04741 4.93077C5.04148 4.92734 5.03753 4.92305 5.03161 4.92048L2.70492 3.75337C2.62691 3.7139 2.53012 3.7139 2.45211 3.75337L0.125421 4.92048C0.119496 4.92305 0.114558 4.9282 0.10962 4.93077C0.103695 4.93421 0.09777 4.9385 0.0918445 4.94279C0.0691306 4.95909 0.0483907 4.97797 0.0335782 5.00028C0.018765 5.0226 0.0108644 5.04748 0.00592512 5.07237C0.00493762 5.07923 0.00395018 5.08524 0.00296268 5.09211C0.00197493 5.09811 0 5.10326 0 5.10927V7.44348C0 7.52243 0.0483914 7.59451 0.126408 7.63399L0.125429 7.63399ZM0.504652 5.4903L2.32571 6.40338V8.2304L0.504652 7.31733V5.4903ZM3.98289 6.72691C3.86043 6.6677 3.70636 6.7046 3.63822 6.8093C3.56909 6.91485 3.61255 7.04871 3.73303 7.1088L4.40557 7.44005L2.8304 8.23043V6.4034L4.65146 5.49032V7.05561L3.98289 6.72691ZM2.57857 4.19609L4.39963 5.10916L2.57857 6.02224L0.757518 5.10916L2.57857 4.19609ZM12.5726 16.2412C12.5677 16.2155 12.5588 16.1906 12.545 16.1692C12.5302 16.1468 12.5094 16.128 12.4857 16.1108C12.4798 16.1065 12.4739 16.1031 12.4679 16.0988C12.462 16.0954 12.4581 16.0911 12.4521 16.0885L10.1255 14.9214C10.0474 14.8819 9.95065 14.8819 9.87263 14.9214L7.54595 16.0885C7.54002 16.0919 7.53509 16.0962 7.52916 16.0996C7.52323 16.1031 7.51731 16.1074 7.51237 16.1108C7.48867 16.128 7.46793 16.146 7.45312 16.1692C7.43831 16.1915 7.43041 16.2164 7.42547 16.2412C7.42448 16.2481 7.42349 16.2541 7.4225 16.261C7.42152 16.267 7.41954 16.2721 7.41954 16.2781V18.6123C7.41954 18.6913 7.46793 18.7634 7.54595 18.8029L9.87263 19.97C9.87856 19.9725 9.88547 19.9743 9.8914 19.9768C9.89831 19.9794 9.90522 19.982 9.91214 19.9846C9.94078 19.9931 9.96941 20 9.99904 20C10.0287 20 10.0573 19.994 10.0859 19.9846C10.0929 19.982 10.0998 19.9803 10.1067 19.9768C10.1126 19.9743 10.1195 19.9734 10.1255 19.97L12.4521 18.8029C12.5302 18.7634 12.5785 18.6913 12.5785 18.6123V16.2781C12.5785 16.2721 12.5766 16.267 12.5756 16.261C12.5746 16.2541 12.5736 16.2481 12.5726 16.2412ZM9.99896 15.3651L11.82 16.2781L9.99896 17.1921L8.1779 16.2781L9.99896 15.3651ZM7.92509 16.6592L9.74614 17.5722V19.3993L7.92509 18.4862V16.6592ZM10.2518 19.3993V17.5723L12.0728 16.6592V18.4863L10.2518 19.3993ZM19.996 5.09293C19.995 5.08606 19.9941 5.08005 19.9931 5.07319C19.9881 5.04744 19.9792 5.02256 19.9654 5.0011C19.9506 4.97879 19.9299 4.95991 19.9062 4.94361C19.9002 4.93931 19.8943 4.93502 19.8884 4.93159C19.8825 4.92816 19.8785 4.92387 19.8726 4.92129L17.5459 3.75419C17.4679 3.71472 17.3711 3.71472 17.2931 3.75419L14.9664 4.92129C14.9605 4.92387 14.9565 4.92816 14.9506 4.93159C14.9437 4.93588 14.9378 4.93931 14.9318 4.94361C14.9091 4.95991 14.8884 4.97879 14.8736 5.0011C14.8588 5.02341 14.8509 5.0483 14.8459 5.07319C14.8449 5.08005 14.8439 5.08606 14.843 5.09293C14.842 5.09893 14.84 5.10408 14.84 5.11009V7.29668L13.3577 8.02612C13.2362 8.08619 13.1937 8.22006 13.2629 8.32562C13.3093 8.39685 13.3952 8.43718 13.4831 8.43718C13.5255 8.43718 13.568 8.42774 13.6075 8.40886L15.0731 7.68802L17.2941 8.80191C17.3 8.80449 17.3069 8.8062 17.3129 8.80878C17.3198 8.81135 17.3267 8.81393 17.3336 8.8165C17.3622 8.82508 17.3909 8.83195 17.4205 8.83195C17.4501 8.83195 17.4788 8.82594 17.5074 8.8165C17.5143 8.81393 17.5212 8.81221 17.5281 8.80878C17.5341 8.8062 17.541 8.80534 17.5469 8.80191L19.8736 7.63481C19.9516 7.59533 20 7.52325 20 7.4443V5.11009C20 5.10408 19.998 5.09893 19.997 5.09293L19.996 5.09293ZM17.4196 4.19615L19.2406 5.10923L17.4196 6.0223L15.5985 5.10923L17.4196 4.19615ZM16.3422 6.81002C16.273 6.70447 16.119 6.66757 15.9975 6.72764L15.3457 7.04858V5.49103L17.1668 6.4041V8.23113L15.5827 7.43647L16.2464 7.1095C16.3678 7.04943 16.4103 6.91556 16.3412 6.81L16.3422 6.81002ZM17.6724 8.23027V6.40324L19.4935 5.49017V7.3172L17.6724 8.23027ZM5.54915 5.0061C5.5926 5.0061 5.63606 4.99666 5.67556 4.97693L7.67338 3.97459L9.87366 5.07818C9.87959 5.08076 9.8865 5.08247 9.89243 5.08505C9.89934 5.08762 9.90625 5.0902 9.91316 5.09277C9.9418 5.10135 9.97044 5.10822 10.0001 5.10822C10.0297 5.10822 10.0583 5.10221 10.087 5.09277C10.0939 5.0902 10.1008 5.08848 10.1077 5.08505C10.1136 5.08247 10.1206 5.08161 10.1265 5.07818L12.3554 3.96L14.3829 4.97693C14.4224 4.99666 14.4658 5.0061 14.5093 5.0061C14.5962 5.0061 14.6811 4.96663 14.7285 4.89626C14.7986 4.79156 14.7571 4.65684 14.6357 4.5959L12.5796 3.56439V1.38636C12.5796 1.38035 12.5776 1.37521 12.5766 1.3692C12.5756 1.36233 12.5746 1.35633 12.5736 1.34946C12.5687 1.32371 12.5598 1.29883 12.546 1.27738C12.5312 1.25506 12.5104 1.23618 12.4867 1.21902C12.4808 1.21473 12.4749 1.2113 12.469 1.20701C12.463 1.20358 12.4591 1.19928 12.4532 1.19671L10.1265 0.0296071C10.0485 -0.00986902 9.95168 -0.00986902 9.87366 0.0296071L7.54697 1.19671C7.54105 1.20014 7.53611 1.20443 7.53117 1.20701C7.52525 1.21044 7.51932 1.21473 7.5134 1.21902C7.49068 1.23533 7.46994 1.25421 7.45513 1.27652C7.44032 1.29883 7.43242 1.32372 7.42748 1.3486C7.42649 1.35547 7.4255 1.36148 7.42451 1.36834C7.42353 1.37435 7.42155 1.3795 7.42155 1.3855V3.59273L5.42373 4.59506C5.30325 4.65599 5.26177 4.78987 5.3309 4.89542C5.3783 4.96579 5.46323 5.00527 5.55014 5.00527L5.54915 5.0061ZM11.4183 2.98256C11.2978 2.92249 11.1427 2.95853 11.0726 3.06323C11.0025 3.16793 11.044 3.30265 11.1654 3.36359L11.8488 3.70686L10.2519 4.50837V2.68134L12.073 1.76827V3.31209L11.4183 2.98342L11.4183 2.98256ZM9.99913 0.473264L11.8202 1.38634L9.99913 2.30029L8.17808 1.38634L9.99913 0.473264ZM7.92526 1.76737L9.74632 2.68044V4.50747L8.17808 3.72054L8.89109 3.36269C9.01158 3.30176 9.05305 3.16789 8.98393 3.06233C8.91381 2.95678 8.75876 2.92159 8.63828 2.98166L7.92526 3.33952V1.76649L7.92526 1.76737ZM7.28334 15.8662L5.15812 14.7995V12.5545C5.15812 12.5485 5.15615 12.5433 5.15516 12.5373C5.15417 12.5304 5.15319 12.5244 5.1522 12.5176C5.14726 12.4918 5.13837 12.4669 5.12455 12.4455C5.10973 12.4232 5.08899 12.4043 5.06628 12.388C5.06035 12.3837 5.05443 12.3794 5.0485 12.376C5.04258 12.3725 5.03863 12.3682 5.0327 12.3657L2.83242 11.2621V9.25913C2.83242 9.13727 2.71984 9.03944 2.57961 9.03944C2.43938 9.03944 2.32679 9.13727 2.32679 9.25913V11.2621L0.126516 12.3657C0.120591 12.3691 0.115653 12.3734 0.110715 12.3768C0.10479 12.3803 0.0988646 12.3846 0.0929391 12.3888C0.0702252 12.4052 0.0494853 12.424 0.0346729 12.4463C0.0198594 12.4687 0.011959 12.4935 0.00701997 12.5184C0.00603247 12.5253 0.00504479 12.5313 0.00405729 12.5382C0.00306979 12.5442 0.00109461 12.5493 0.00109461 12.5553V14.8895C0.00109461 14.9685 0.049486 15.0406 0.127502 15.08L2.45419 16.2472C2.46011 16.2497 2.46703 16.2514 2.47295 16.254C2.47986 16.2566 2.48678 16.2592 2.49369 16.2617C2.52233 16.2703 2.55097 16.2772 2.5806 16.2772C2.61022 16.2772 2.63886 16.2712 2.6675 16.2617C2.67441 16.2592 2.68133 16.2574 2.68824 16.254C2.69416 16.2514 2.70108 16.2506 2.707 16.2472L4.86976 15.1624L7.03252 16.2472C7.07202 16.2669 7.11548 16.2763 7.15893 16.2763C7.24584 16.2763 7.33077 16.2368 7.37817 16.1665C7.44828 16.0618 7.40681 15.9271 7.28534 15.8661L7.28334 15.8662ZM2.5787 12.74C2.71893 12.74 2.83151 12.6422 2.83151 12.5203V11.7694L4.39975 12.5563L2.5787 13.4694L0.757644 12.5563L2.32588 11.7694V12.5203C2.32588 12.6422 2.43846 12.74 2.5787 12.74ZM0.504829 12.9365L2.32588 13.8496V15.6766L0.504829 14.7635V12.9365ZM2.83151 15.6767V13.8497L4.65257 12.9366V14.5465L4.06695 14.253C3.94647 14.1921 3.79143 14.2281 3.7213 14.3337C3.65118 14.4384 3.69266 14.5731 3.81413 14.6341L4.36223 14.9087L2.83151 15.6767ZM9.99934 7.03411C8.11705 7.03411 6.58633 8.36427 6.58633 9.99993C6.58633 11.6356 8.11705 12.9657 9.99934 12.9657C11.8816 12.9657 13.4123 11.6356 13.4123 9.99993C13.4123 8.36427 11.8816 7.03411 9.99934 7.03411ZM12.7113 10.9044C12.416 10.9868 12.1168 11.0511 11.8165 11.1061C11.8877 10.8297 11.9321 10.5319 11.9469 10.2196H12.894C12.8703 10.459 12.8061 10.6881 12.7113 10.9044ZM7.31039 9.04131C7.6027 8.96064 7.89799 8.89714 8.19426 8.84307C8.11526 9.13313 8.06785 9.44893 8.05205 9.78018H7.10498C7.13066 9.52101 7.20176 9.27301 7.31039 9.04216V9.04131ZM10.2524 8.68345C10.5862 8.69204 10.92 8.71521 11.2528 8.7564C11.3555 9.06533 11.4227 9.41204 11.4414 9.7802H10.2524L10.2524 8.68345ZM10.2524 8.23979V7.51635C10.5625 7.61676 10.842 7.89567 11.0523 8.28784C10.7857 8.26124 10.519 8.2458 10.2524 8.23979ZM9.74677 7.51635V8.23979C9.48013 8.2458 9.2125 8.2621 8.94684 8.28785C9.15719 7.8948 9.43667 7.61589 9.74677 7.51635ZM9.74677 8.68345V9.78019H8.55776C8.57652 9.41289 8.64367 9.06534 8.74638 8.75639C9.07919 8.71434 9.412 8.69204 9.74677 8.68345ZM7.10511 10.2196H8.05218C8.06699 10.5319 8.11143 10.8297 8.18253 11.1061C7.88232 11.0511 7.58407 10.9868 7.2878 10.9044C7.192 10.6881 7.12881 10.459 7.10511 10.2196ZM8.55781 10.2196H9.74682V11.2682C9.40709 11.2597 9.06738 11.2365 8.72866 11.1936C8.63484 10.8975 8.57559 10.5671 8.55682 10.2196L8.55781 10.2196ZM9.74682 11.7119V12.4834C9.42292 12.3787 9.13354 12.0801 8.92024 11.6613C9.19478 11.6896 9.47032 11.7051 9.74682 11.7119ZM10.2525 12.4834V11.7119C10.528 11.7051 10.8035 11.6896 11.079 11.6613C10.8657 12.0801 10.5764 12.3796 10.2525 12.4834ZM10.2525 11.2683V10.2196H11.4415C11.4237 10.5671 11.3635 10.8975 11.2696 11.1936C10.9319 11.2365 10.5922 11.2597 10.2515 11.2683L10.2525 11.2683ZM11.9471 9.78021C11.9313 9.44897 11.8839 9.13316 11.8049 8.8431C12.1012 8.89717 12.3964 8.96067 12.6888 9.04134C12.7984 9.27219 12.8685 9.5202 12.8942 9.77937H11.9471V9.78021ZM12.3293 8.49468C12.1002 8.44318 11.8691 8.39942 11.638 8.36338C11.5363 8.12567 11.4118 7.91284 11.2696 7.73091C11.6894 7.90941 12.0518 8.172 12.3293 8.49468ZM8.7297 7.7309C8.58749 7.91283 8.46404 8.12566 8.36135 8.36337C8.13026 8.39941 7.89917 8.44318 7.67005 8.49467C7.94658 8.17199 8.30899 7.9094 8.7297 7.7309ZM7.6187 11.445C7.85868 11.4999 8.09963 11.5462 8.3416 11.5849C8.44727 11.8432 8.57763 12.074 8.72972 12.2688C8.28434 12.08 7.90115 11.796 7.6187 11.445ZM11.2696 12.2688C11.4217 12.074 11.5521 11.8432 11.6577 11.5849C11.8997 11.5471 12.1407 11.4999 12.3806 11.445C12.0982 11.7951 11.716 12.0792 11.2696 12.2688ZM6.66761 11.348C6.73674 11.4536 6.69328 11.5874 6.5728 11.6475L5.47265 12.189C5.43315 12.2079 5.39068 12.2173 5.34822 12.2173C5.26032 12.2173 5.17441 12.177 5.12799 12.1058C5.05886 12.0002 5.10232 11.8663 5.2228 11.8063L6.32295 11.2648C6.44541 11.2047 6.59948 11.2425 6.66761 11.3472L6.66761 11.348ZM13.3149 11.348C13.384 11.2425 13.5381 11.2056 13.6595 11.2656L14.7597 11.8071C14.8812 11.8672 14.9236 12.0011 14.8545 12.1066C14.8081 12.1778 14.7222 12.2182 14.6343 12.2182C14.5918 12.2182 14.5493 12.2087 14.5098 12.1899L13.4097 11.6484C13.2882 11.5883 13.2458 11.4544 13.3149 11.3489L13.3149 11.348Z" fill="#886CFF"/>
</svg>
