<svg width="20" height="20" viewBox="0 0 20 20" fill="none" xmlns="http://www.w3.org/2000/svg">
<path d="M12.0777 7.48623C12.0777 7.63965 11.9458 7.76395 11.7831 7.76395H5.64944C5.48669 7.76395 5.35483 7.63965 5.35483 7.48623C5.35483 7.33282 5.48669 7.20852 5.64944 7.20852H11.7831C11.9458 7.20852 12.0777 7.33282 12.0777 7.48623ZM2.85184 9.63431H11.992C12.1548 9.63431 12.2866 9.51001 12.2866 9.35659C12.2866 9.20317 12.1548 9.07887 11.992 9.07887H2.85184C2.6891 9.07887 2.55723 9.20317 2.55723 9.35659C2.55723 9.51001 2.6891 9.63431 2.85184 9.63431ZM11.9708 11.0447H2.89186C2.72911 11.0447 2.59725 11.169 2.59725 11.3224C2.59725 11.4758 2.72911 11.6001 2.89186 11.6001H11.9705C12.1333 11.6001 12.2652 11.4758 12.2652 11.3224C12.2652 11.169 12.1336 11.0447 11.9708 11.0447ZM10.8888 12.9034H2.87306C2.71031 12.9034 2.57845 13.0277 2.57845 13.1811C2.57845 13.3345 2.71031 13.4588 2.87306 13.4588H10.8888C11.0515 13.4588 11.1834 13.3345 11.1834 13.1811C11.1834 13.0277 11.0515 12.9034 10.8888 12.9034ZM10.5437 15.0398C10.5437 14.8864 10.4118 14.7621 10.2491 14.7621H2.85426C2.69151 14.7621 2.55965 14.8864 2.55965 15.0398C2.55965 15.1932 2.69151 15.3175 2.85426 15.3175H10.2491C10.4118 15.3175 10.5437 15.1932 10.5437 15.0398ZM9.82878 16.6205H2.83546C2.67271 16.6205 2.54085 16.7449 2.54085 16.8983C2.54085 17.0517 2.67271 17.176 2.83546 17.176H9.82878C9.99152 17.176 10.1234 17.0517 10.1234 16.8983C10.1234 16.7449 9.99152 16.6205 9.82878 16.6205ZM19.86 3.984L17.2832 8.3442C17.2365 8.42344 17.1543 8.47027 17.0659 8.48192L16.3629 9.68443V17.6491C16.3629 17.8026 16.231 17.9269 16.0682 17.9269H14.3913V19.7223C14.3913 19.8757 14.2595 20 14.0967 20H0.294611C0.131863 20 0 19.8757 0 19.7223V6.16271C0 6.15663 0.00322286 6.15157 0.00349142 6.14574C0.00510278 6.12043 0.010474 6.09613 0.0193365 6.07233C0.0225592 6.06372 0.0247077 6.05511 0.0287361 6.04676C0.0427012 6.0179 0.0606948 5.99081 0.0851338 5.96727L1.99782 4.14425L1.97177 2.35491C1.97177 2.35491 1.97204 2.35364 1.97204 2.35288C1.97204 2.35212 1.9715 2.35162 1.9715 2.35086V0.277718C1.9715 0.124302 2.10337 0 2.26611 0H16.0677C16.2305 0 16.3623 0.124302 16.3623 0.277718V4.42627L17.3901 2.68705C17.6893 2.18073 18.3695 1.99846 18.9067 2.28048L19.4279 2.55414C19.6874 2.69035 19.8751 2.91439 19.9567 3.18502C20.0384 3.45565 20.0037 3.73945 19.8592 3.98375L19.86 3.984ZM2.57952 3.59008L4.08454 2.15567C4.08454 2.15567 4.08507 2.15542 4.08534 2.15516C4.08668 2.1539 4.08856 2.15314 4.08991 2.15212C4.11381 2.13035 4.14093 2.11415 4.16994 2.10124C4.17907 2.09719 4.1882 2.09491 4.19787 2.09162C4.22338 2.08326 4.24943 2.0782 4.27629 2.07668C4.28247 2.07643 4.28784 2.07339 4.29428 2.07339H14.097C14.2598 2.07339 14.3916 2.19769 14.3916 2.35111V8.14623L14.8501 7.36193C14.7719 7.27611 14.7526 7.15181 14.8143 7.04725L15.7739 5.42348V0.555689H2.56099V2.34934L2.57952 3.59008ZM16.5796 8.16293L15.4127 7.55028L12.155 13.1224C12.2622 13.1289 12.3672 13.1517 12.4642 13.1996L13.087 13.5079C13.185 13.5565 13.269 13.6257 13.337 13.7089L16.5796 8.16293ZM11.1058 16.2122L12.8192 14.5904C12.8278 14.5775 12.8367 14.5649 12.8444 14.5517C12.9272 14.4097 12.9535 14.2525 12.9145 14.1305C12.9008 14.0872 12.8718 14.0292 12.8128 14.0001L12.19 13.6917C12.0554 13.6251 11.7984 13.7325 11.6561 13.976C11.6448 13.9953 11.6343 14.0153 11.6249 14.0355C11.6246 14.0363 11.6238 14.0368 11.6236 14.0375C11.6236 14.038 11.6236 14.0388 11.623 14.0393L11.1055 16.2127L11.1058 16.2122ZM1.01784 5.86803L4.05929 5.79891L4.01068 3.01566L1.01784 5.86803ZM13.8016 14.0649L13.3603 14.8196L13.337 14.8596C13.333 14.8666 13.3268 14.8717 13.3222 14.878C13.3131 14.892 13.3048 14.9061 13.2951 14.9196C13.2868 14.9309 13.2766 14.9401 13.2669 14.9499C13.2639 14.953 13.2631 14.957 13.2599 14.9598L10.8031 17.2848C10.7464 17.3385 10.6707 17.3666 10.5942 17.3666C10.5458 17.3666 10.497 17.3555 10.4524 17.3324C10.3374 17.2729 10.2781 17.1489 10.3068 17.0281L11.0615 13.8601C11.0652 13.8441 11.077 13.832 11.0835 13.817C11.084 13.8155 11.0838 13.814 11.0846 13.8127C11.0926 13.795 11.1028 13.7781 11.112 13.7606C11.1141 13.7563 11.1138 13.7517 11.1163 13.7474L11.1396 13.7074L13.8013 9.15406V2.62857H4.59319L4.65335 6.06524C4.65603 6.2179 4.52766 6.34372 4.36572 6.34751L0.589222 6.43334V19.4441H13.8016V14.0649ZM15.7734 10.6923L14.3911 13.0568V17.3712H15.7734V10.6923ZM19.3903 3.33717C19.3517 3.20933 19.2633 3.1035 19.1416 3.03971L18.6204 2.76604C18.3671 2.63313 18.0465 2.71921 17.9055 2.95768L15.5306 6.97611L16.9701 7.73205L19.3449 3.71362C19.4129 3.59869 19.429 3.46502 19.3903 3.33717ZM5.60674 5.82955H11.7404C11.9031 5.82955 12.035 5.70524 12.035 5.55183C12.035 5.39841 11.9031 5.27411 11.7404 5.27411H5.60674C5.44399 5.27411 5.31213 5.39841 5.31213 5.55183C5.31213 5.70524 5.44399 5.82955 5.60674 5.82955Z" fill="#5E6160"/>
</svg>
